<svg xmlns="http://www.w3.org/2000/svg" width="24" height="24" viewBox="0 0 18 23" fill="none"><path fill-rule="evenodd" clip-rule="evenodd" d="M10.115 21.8122C12.4772 19.4062 17.7886 13.4751 17.7886 8.78883C17.7886 3.79647 13.9976 0 9.00526 0C4.0129 0 0.210938 3.79647 0.210938 8.78883C0.210938 13.4755 5.52998 19.4073 7.89476 21.8129C8.51149 22.4403 9.49871 22.44 10.115 21.8122ZM8.99988 12.7888C11.4269 12.7888 13.3943 10.8214 13.3943 8.39441C13.3943 5.96745 11.4269 4 8.99988 4C6.57292 4 4.60547 5.96745 4.60547 8.39441C4.60547 10.8214 6.57292 12.7888 8.99988 12.7888Z" fill="#FF5200"></path></svg>