<svg xmlns="http://www.w3.org/2000/svg"><defs><font id="icomoon" horiz-adv-x="1024"><font-face ascent="960" descent="-64" units-per-em="1024"/><glyph horiz-adv-x="512"/><glyph d="m298.36 853.333 136.288-110.442c-117.871-77.31-224.691-224.566-235.741-342.372 3.683 0 29.468 3.681 47.885 3.681 103.137 0 176.806-77.31 176.806-187.752 0-106.761-84.719-195.115-195.223-195.115C106.821 21.333.001 120.731.001 301.121c0 224.566 128.921 430.726 298.36 552.212zm589.352 0L1024 742.891c-117.871-77.31-221.007-224.566-235.741-342.372 3.683 0 29.468 3.681 47.885 3.681 103.137 0 180.489-77.31 180.489-187.752 0-106.761-88.403-195.115-198.906-195.115-121.554 0-228.374 99.398-228.374 279.788 0 224.566 128.921 430.726 298.36 552.212z" data-tags="swgy-quotes-rounded" glyph-name="swgy-quotes-rounded" unicode=""/><glyph d="m378.854 151.779 137.828 137.016a64.402 64.402 0 0 0 45.405 18.729H822.3c35.569 0 64.403 28.834 64.403 64.403V699.71c0 35.569-28.834 64.403-64.403 64.403H259.663c-35.569 0-64.403-28.834-64.403-64.403V371.927c0-35.569 28.834-64.403 64.403-64.403h97.724c11.856 0 21.468-9.611 21.468-21.468V151.778zm-42.935 112.81h-76.257c-59.281 0-107.338 48.057-107.338 107.338V699.71c0 59.281 48.057 107.338 107.338 107.338h562.637c59.281 0 107.338-48.057 107.338-107.338V371.927c0-59.281-48.057-107.338-107.338-107.338H562.086a21.465 21.465 0 0 1-15.135-6.243L372.521 84.943c-13.542-13.462-36.602-3.87-36.602 15.225V264.59zm321.408 380.602c26.059 20.722 55.487 25.115 86.496 12.88 21.588-8.546 37.449-24.389 47.666-47.134 14.22-31.695 6.515-74.418-18.053-97.801-7-6.642-14.467-13.336-23.948-21.561-3.312-2.873-5.229-4.522-12.073-10.399l-11.836-10.187c-14.619-12.69-28.465-24.621-51.24-44.187l-17.134-14.71c-8.358-7.175-20.79-6.86-28.774.729l-36.468 34.665-7.567 7.198c-28.535 27.142-43.521 41.441-60.505 57.781-15.012 14.447-23.634 33.276-25.492 55.1-3.544 41.167 19.98 78.503 58.388 92.266 9.084 3.266 18.617 4.898 28.252 4.898 24.068 0 47.207-10.197 63.428-27.792 3.404 3.594 5.741 5.779 8.861 8.254zm-10.962-185.817c22.718 19.517 36.519 31.41 51.137 44.098l11.924 10.263c6.802 5.841 8.693 7.468 11.928 10.274 9.04 7.842 16.067 14.142 22.506 20.252 11.153 10.615 15.331 33.779 8.461 49.093-5.762 12.827-13.443 20.499-24.277 24.788-16.71 6.593-29.943 4.618-44.011-6.57-1.879-1.491-3.736-3.381-8.309-8.393a321.096 321.096 0 0 0-6.229-6.676l-7.157-7.355c-9.13-9.382-24.46-8.478-32.424 1.912l-6.089 7.947-.905 1.16-2.924 3.892c-8.19 11.147-21.342 17.735-34.958 17.735-4.726 0-9.343-.791-13.747-2.374-19.944-7.147-32-26.282-30.114-48.193.996-11.693 5.151-20.767 12.483-27.823 16.906-16.265 31.848-30.522 60.327-57.61l7.562-7.193 22.405-21.297 2.412 2.071zm-362.994 174.32h128.805c28.623 0 28.623-42.935 0-42.935H283.371c-28.623 0-28.623 42.935 0 42.935zm0-86.943h128.805c28.623 0 28.623-42.935 0-42.935H283.371c-28.623 0-28.623 42.935 0 42.935zm0-86.944h128.805c28.623 0 28.623-42.935 0-42.935H283.371c-28.623 0-28.623 42.935 0 42.935z" data-tags="icon-feedback" glyph-name="icon-feedback" horiz-adv-x="1082" unicode=""/><glyph d="M670.847 567.701 601.942 704 460.801 192l144.302 137.207L567.279 192 837.41 448.851 708.42 704l-37.573-136.299zM65.635 960h1097.529c22.823 0 31.099-2.376 39.443-6.839s14.892-11.01 19.354-19.354 6.839-16.62 6.839-39.443V27.235c0-22.823-2.376-31.099-6.839-39.443s-11.01-14.892-19.354-19.354-16.62-6.839-39.443-6.839H65.635c-22.823 0-31.099 2.376-39.443 6.839S11.3-20.552 6.838-12.208-.001 4.412-.001 27.235v867.129c0 22.823 2.376 31.099 6.839 39.443s11.01 14.892 19.354 19.354S42.812 960 65.635 960z" data-tags="upi" glyph-name="upi" horiz-adv-x="1229" unicode=""/><glyph d="m443.142 902.082 20.817 30.638c24.906 36.653 78.67 36.31 103.11-.663l20.431-30.901c25.047-37.888 73.265-52.495 114.883-34.806l33.939 14.424c40.608 17.26 85.656-12.332 86.393-56.76l.612-37.127c.76-45.532 33.48-84.1 77.983-91.904l36.287-6.363c43.42-7.615 65.44-57.063 42.241-94.837l-19.394-31.576c-23.783-38.711-16.933-88.999 16.32-119.815l27.117-25.133c32.436-30.072 24.446-83.682-15.322-102.812l-33.253-15.985c-40.761-19.61-61.964-65.645-50.52-109.696l9.334-35.921c11.166-42.982-24.299-83.722-68.02-78.137l-36.542 4.671c-44.804 5.729-87.329-21.445-101.324-64.741l-11.415-35.304c-13.655-42.25-65.338-57.189-99.118-28.66l-28.24 23.846c-34.62 29.243-84.964 29.564-119.952.772l-28.535-23.486c-34.143-28.094-85.633-12.492-98.755 29.924l-10.967 35.452C297.807 60.65 255.628 88.361 210.756 83.21l-36.604-4.202c-43.783-5.025-78.732 36.167-67.028 79l9.788 35.801c11.994 43.902-8.631 90.206-49.142 110.33l-33.037 16.414c-39.536 19.639-46.846 73.34-14.029 102.995l27.429 24.784c33.633 30.393 41.118 80.584 17.823 119.598l-18.991 31.822c-22.728 38.065-.079 87.233 43.426 94.288l36.372 5.9c44.589 7.232 77.802 45.383 79.129 90.898l1.083 37.122c1.293 44.411 46.709 73.426 87.096 55.645l33.758-14.859c41.39-18.221 89.784-4.231 115.313 33.337zM697.27 592.594 427.105 320.628 305.531 442.202c-6.004 6.004-12.908 9.006-20.713 9.006s-14.709-3.002-20.713-9.006c-5.403-5.403-8.105-12.157-8.105-20.262s2.702-14.859 8.105-20.262l143.187-142.287c5.403-6.004 12.157-9.006 20.262-9.006s14.859 3.002 20.262 9.006l3.602 3.602L738.694 552.07c5.403 5.403 8.105 12.157 8.105 20.262s-2.702 14.859-8.105 20.262c-6.004 6.004-12.908 9.006-20.713 9.006s-14.709-3.002-20.713-9.006z" data-tags="check-round" glyph-name="check-round" unicode=""/><glyph d="M500.414 424.341v78.134H286.885v70.32h213.529v157.231h73.783V424.341h410.418V88.233C984.615-.865 927.005-64 852.839-64H500.414v488.341zm-61.943 0V-64H166.105C96.12-64 39.384 4.158 39.384 88.233v336.108H438.47zm-77.932 262.752c0 62.312-54.286 113.035-121.515 113.035s-121.515-50.723-121.515-113.035 54.286-113.035 121.515-113.035h121.515v113.035zM741.586 960c134.102 0 243.03-101.779 243.03-227.583s-108.928-227.583-243.03-227.583c-.539.002-68.918.002-205.138 0-20.927 0-36.033 16.077-36.033 35.909v190.453C500.415 858.221 607.485 960 741.586 960zm-502.562-88.054c108.845 0 199.447-82.648 199.447-184.853V538.149c0-19.832-19.113-35.909-40.04-35.909H239.024c-108.845 0-197.298 82.648-197.298 184.853s88.454 184.853 197.298 184.853zm669.808-139.529c0 85.911-74.761 155.765-167.246 155.765-92.318 0-166.975-69.6-167.246-155.297.011-.279.015-.493.033-1.472a34.135 34.135 0 0 0-.033-1.756V576.652h164.328c.608.024 1.22.035 1.836.031a57.088 57.088 0 0 0 1.537-.031c92.276.228 166.792 69.994 166.792 155.764z" data-tags="icon-multi-offer" glyph-name="icon-multi-offer" unicode=""/><glyph d="M781.274 478.341H1024V417.66H781.274V174.934h-60.681V417.66H477.867v60.681h242.726v242.726h60.681V478.341zM87.514 960h1326.839c30.431 0 41.465-3.168 52.59-9.118s19.856-14.681 25.806-25.806c5.95-11.125 9.118-22.16 9.118-52.59V23.514c0-30.431-3.168-41.465-9.118-52.59s-14.681-19.856-25.806-25.806c-11.125-5.95-22.16-9.118-52.59-9.118H87.514c-30.431 0-41.465 3.168-52.59 9.118S15.068-40.201 9.118-29.076C3.168-17.951 0-6.916 0 23.514v848.972c0 30.431 3.168 41.465 9.118 52.59s14.681 19.856 25.806 25.806c11.125 5.95 22.16 9.118 52.59 9.118zm34.133-34.133c-30.431 0-41.465-3.168-52.59-9.118s-19.856-14.681-25.806-25.806c-5.95-11.125-9.118-22.16-9.118-52.59V57.648c0-30.431 3.168-41.465 9.118-52.59s14.681-19.856 25.806-25.806c11.125-5.95 22.16-9.118 52.59-9.118h1258.572c30.431 0 41.465 3.168 52.59 9.118s19.856 14.681 25.806 25.806c5.95 11.125 9.118 22.16 9.118 52.59v780.705c0 30.431-3.168 41.465-9.118 52.59s-14.681 19.856-25.806 25.806c-11.125 5.95-22.16 9.118-52.59 9.118H121.647z" data-tags="add-new-card" glyph-name="add-new-card" horiz-adv-x="1502" unicode=""/><glyph d="M211.054 33.783A512 512 0 0 0 25.059 606.216 511.996 511.996 0 0 0 512 959.999a512 512 0 0 0 486.941-353.783A512 512 0 0 0 812.946 33.783a511.996 511.996 0 0 0-601.892 0zm280.285 316.759h63.281a8.533 8.533 0 0 1 8.527 8.202l14.925 383.9c.275 7.064-5.229 13.013-12.293 13.288-.166.006-.331.01-.497.01H479.85c-7.069 0-12.8-5.731-12.8-12.8 0-.175.004-.35.011-.525l15.754-383.891a8.533 8.533 0 0 1 8.526-8.183zm-29.205-126.961c0-32.397 27.143-60.416 60.416-60.416s61.291 28.019 61.291 60.416c0 33.273-28.019 61.291-61.291 61.291s-60.416-28.019-60.416-61.291z" data-tags="overdue" glyph-name="overdue" unicode=""/><glyph d="M65.635 960h1097.529c22.823 0 31.099-2.376 39.443-6.839s14.892-11.01 19.354-19.354 6.839-16.62 6.839-39.443V27.235c0-22.823-2.376-31.099-6.839-39.443s-11.01-14.892-19.354-19.354-16.62-6.839-39.443-6.839H65.635c-22.823 0-31.099 2.376-39.443 6.839S11.3-20.552 6.838-12.208-.001 4.412-.001 27.235v867.129c0 22.823 2.376 31.099 6.839 39.443s11.01 14.892 19.354 19.354S42.812 960 65.635 960zM416 544V294.4h83.2V544H416zm166.4 0V294.4h83.2V544h-83.2zm166.4 0V294.4H832V544h-83.2zm-416-249.6v-83.2h582.4v83.2H332.8zM624 771.176 264.533 544h718.933L623.999 771.176z" data-tags="netbanking" glyph-name="netbanking" horiz-adv-x="1229" unicode=""/><glyph d="M1024-38.4v247.467h-68.267V-38.4H65.635c-22.823 0-31.099 2.376-39.443 6.839S11.3-20.551 6.838-12.207-.001 4.413-.001 27.236v867.129c0 22.823 2.376 31.099 6.839 39.443s11.01 14.892 19.354 19.354 16.62 6.839 39.443 6.839h1097.529c22.823 0 31.099-2.376 39.443-6.839s14.892-11.01 19.354-19.354 6.839-16.62 6.839-39.443V27.236c0-22.823-2.376-31.099-6.839-39.443s-11.01-14.892-19.354-19.354-16.62-6.839-39.443-6.839h-139.165zM955.733 960V686.933H1024V960h-68.267zm0-341.333V277.334H1024v341.333h-68.267zm-338.03 68.266H273.067v-53.017H384.72c52.105 0 90.067-27.225 97.511-71.644H273.067v-37.255h209.164c-8.188-44.419-46.15-73.794-97.511-73.794H273.067v-52.3h81.135l126.54-189.857h72.202L418.96 403.938c63.27 5.732 120.586 46.569 128.029 121.079h70.714v37.255h-71.458c-5.21 37.255-25.308 68.062-58.06 87.406h129.518v37.255z" data-tags="paybycash" glyph-name="paybycash" horiz-adv-x="1229" unicode=""/><glyph d="M65.635 960h1097.529c22.823 0 31.099-2.376 39.443-6.839s14.892-11.01 19.354-19.354 6.839-16.62 6.839-39.443V27.235c0-22.823-2.376-31.099-6.839-39.443s-11.01-14.892-19.354-19.354-16.62-6.839-39.443-6.839H65.635c-22.823 0-31.099 2.376-39.443 6.839S11.3-20.552 6.838-12.208-.001 4.412-.001 27.235v867.129c0 22.823 2.376 31.099 6.839 39.443s11.01 14.892 19.354 19.354S42.812 960 65.635 960zm550.898-598.4 149.219-78.449-28.498 166.158 120.721 117.674-166.832 24.242-74.61 151.175-74.61-151.175-166.832-24.242 120.721-117.674-28.498-166.158L616.533 361.6z" data-tags="preferred" glyph-name="preferred" horiz-adv-x="1229" unicode=""/><glyph d="M1293.474 789.333H0V618.666h1293.474V5.089c0-24.024-2.501-32.736-7.199-41.519s-11.59-15.676-20.373-20.373c-8.783-4.697-17.495-7.199-41.519-7.199H69.089c-24.024 0-32.736 2.501-41.519 7.199S11.894-45.213 7.197-36.43C2.5-27.647-.002-18.935-.002 5.089v885.82c0 24.024 2.501 32.736 7.199 41.519s11.59 15.676 20.373 20.373C36.353 957.498 45.065 960 69.089 960h1155.294c24.024 0 32.736-2.501 41.519-7.199s15.676-11.59 20.373-20.373c4.697-8.783 7.199-17.495 7.199-41.519V789.332zM87.579 192v-85.333h262.737V192H87.579zm350.316 0v-85.333h350.316V192H437.895z" data-tags="saved-card" glyph-name="saved-card" horiz-adv-x="1293" unicode=""/><glyph d="M1217.387 731.74H836.954V199.133h380.433V39.963c0-24.024-2.501-32.736-7.199-41.519s-11.59-15.676-20.373-20.373c-8.783-4.697-17.495-7.199-41.519-7.199H69.089c-24.024 0-32.736 2.501-41.519 7.199S11.894-10.339 7.197-1.556C2.5 7.227-.002 15.939-.002 39.963V890.91c0 24.024 2.501 32.736 7.199 41.519s11.59 15.676 20.373 20.373c8.783 4.697 17.495 7.199 41.519 7.199h1079.207c24.024 0 32.736-2.501 41.519-7.199s15.676-11.59 20.373-20.373c4.697-8.783 7.199-17.495 7.199-41.519V731.74zM913.04 655.653h326.539c29.765 0 53.895-24.129 53.895-53.895V329.114c0-29.765-24.129-53.895-53.895-53.895H913.04v380.433zm114.13-228.26c21.011 0 38.043 17.033 38.043 38.043s-17.033 38.043-38.043 38.043c-21.011 0-38.043-17.033-38.043-38.043s17.033-38.043 38.043-38.043z" data-tags="wallet-filled" glyph-name="wallet-filled" horiz-adv-x="1293" unicode=""/><glyph d="M905.573 741.661 538.241 951.962c-33.644 18.228-79.904 4.206-98.127-29.445L309.801 674.783H57.474C25.232 674.783 0 649.544 0 617.295V-6.661C0-38.91 25.233-64.149 57.474-64.149h806.044c32.242 0 57.474 25.239 57.474 57.488v145.824h23.831c12.616 0 22.429 9.815 22.429 22.434v166.856c0 12.619-9.813 22.434-22.429 22.434h-23.831v164.051c0 26.641-32.242 51.666-57.474 57.274l42.054 87.965c18.224 35.054 35.045 61.854 0 81.484zm-19.426-33.742-61.95-135.494H433.162l159.142 306.754 293.843-171.26zM486.292 910.572c7.009 12.619 23.831 18.228 36.447 11.217l35.045-19.63-175.088-329.734h-77.1l180.696 338.147zM43.456 618.696c0 4.206 5.607 11.217 12.616 11.217h228.496l-30.84-56.086H56.072c-4.205 0-8.411 0-12.616-1.402v46.271zM874.733-6.662a12.565 12.565 0 0 0-12.616-12.619H56.073A12.565 12.565 0 0 0 43.457-6.662v521.6a12.565 12.565 0 0 0 12.616 12.619h804.643a12.565 12.565 0 0 0 12.616-12.619V350.887h-85.511c-37.849 0-67.287-30.847-67.287-67.303v-77.118c0-37.858 30.84-67.303 67.287-67.303h86.913V-6.661zm44.859 312.679h1.402V184.03H787.821c-12.616 0-22.429 9.815-22.429 22.434v77.118c0 12.619 9.813 22.434 22.429 22.434h131.771z" data-tags="wallet-checkout" glyph-name="wallet-checkout" horiz-adv-x="981" unicode=""/><glyph d="M425.959 56.197V-64h-61.163V59.365L161.852 244.834c-16.895 11.584-32.668 25.702-45.936 40.822a705.235 705.235 0 0 0-13.62 13.984l-3.764 3.483C56.154 351.378 27.284 405.152 12.19 464.221 4.058 496.416.002 529.929.002 564.709c0 108.195 38.901 201.667 115.915 278.622 5.836 5.831 11.725 11.404 17.243 16.336a250.826 250.826 0 0 0 13.869 11.967c71.042 58.787 154.185 88.367 248.135 88.367V895.44c-79.01 0-147.578-24.394-207.399-73.891-3.682-2.943-7.251-6.018-11.126-9.604a378.62 378.62 0 0 1-15.088-14.283C96.632 732.793 64.564 655.739 64.564 564.71c0-29.517 3.414-57.721 10.2-84.591 12.325-48.231 35.793-92.322 70.678-132.559l2.57-2.297c4.355-4.625 8.866-9.268 14.918-15.404 11.215-12.699 23.025-23.271 38.929-34.549l194.757-177.607 9.667 9.395 4.632 3.737a66.405 66.405 0 0 0 5.062 3.046L606.04 308.042c6.826 5.842 14.104 13.114 23.077 23.193 64.988 65.458 97.078 142.697 97.078 233.474 0 91.033-32.067 168.085-96.987 232.951-8.863 8.856-17.699 17.016-26.154 24.189-59.694 49.179-128.568 73.59-207.891 73.59V960c94.212 0 177.618-29.561 249.294-88.616 10.172-8.625 20.298-17.976 30.384-28.053 77.015-76.951 115.915-170.423 115.915-278.622 0-107.886-38.875-201.455-114.533-277.583-9.58-10.85-18.963-20.226-27.384-27.408l-196.7-180.269-4.021-1.72-22.157-21.532zm-30.582 444.35c-35.388 0-64.076 28.688-64.076 64.076s28.688 64.076 64.076 64.076c35.388 0 64.076-28.688 64.076-64.076s-28.688-64.076-64.076-64.076z" data-tags="marker-checkout" glyph-name="marker-checkout" horiz-adv-x="811" unicode=""/><glyph d="M511.622 472.381c-136.959 0-247.985 109.157-247.985 243.81s111.027 243.81 247.985 243.81c136.959 0 247.985-109.157 247.985-243.81s-111.027-243.81-247.985-243.81zm0 97.524c82.175 0 148.791 65.494 148.791 146.286s-66.616 146.286-148.791 146.286-148.791-65.494-148.791-146.286 66.616-146.286 148.791-146.286zM1024-64H0l55.095 195.048 40.52 139.97c24.499 85.64 114.908 152.601 205.596 152.601h420.821c90.797 0 181.119-67.035 205.596-152.601l44.63-156.012a168.093 168.093 0 0 0 3.818-16.364L1024-64zM891.991 33.524h-8.261l-4.682 43.648c-.391 3.643-1.143 7.461-2.279 11.43l-44.63 156.012c-12.427 43.441-63.682 81.482-110.107 81.482H301.211c-46.357 0-97.67-38.005-110.107-81.482l-44.63-156.012c-1.134-3.965-1.886-7.781-2.276-11.425l-4.678-43.653h752.471z" data-tags="user-checkout" glyph-name="user-checkout" unicode=""/><glyph d="M753.798 228.729 969.614 12.913 892.701-64 670.043 158.658c-67.766-43.563-148.41-68.832-234.956-68.832C194.795 89.826 0 284.621 0 524.913S194.795 960 435.087 960s435.087-194.795 435.087-435.087c0-114.416-44.164-218.516-116.375-296.184zm-318.711-30.131c180.219 0 326.315 146.096 326.315 326.315S615.306 851.228 435.087 851.228 108.772 705.132 108.772 524.913s146.096-326.315 326.315-326.315z" data-tags="search" glyph-name="search" horiz-adv-x="981" unicode=""/><glyph d="M436.554 43.117V-64h-62.441V46.583L163.675 236.394c-16.63 11.582-32.092 25.418-44.841 39.813a713.085 713.085 0 0 0-14.132 14.36l-3.696 3.383c-43.399 48.878-73.02 103.448-88.514 163.422C4.156 490.014 0 523.972 0 559.178c0 109.635 39.951 204.583 118.834 282.544 5.965 5.895 11.987 11.532 17.518 16.419 4.785 4.389 9.733 8.605 14.288 12.199C223.478 929.955 308.861 960 405.117 960v-82.698c-76.908 0-143.417-23.403-201.722-71.117-3.505-2.771-6.903-5.666-10.735-9.173a367.88 367.88 0 0 1-14.727-13.789c-63.219-62.481-94.321-136.397-94.321-224.044 0-28.465 3.324-55.622 9.917-81.443 11.944-46.229 34.667-88.506 68.525-127.2l2.525-2.232c4.293-4.509 8.743-9.04 15.14-15.476 10.723-12.01 21.966-21.964 33.726-29.939l4.53-3.551 188.389-169.924 3.274 3.147 5.999 4.786a75.582 75.582 0 0 0 4.74 2.872l189.699 171.922c6.479 5.484 13.456 12.379 22.54 22.449 63.308 63.07 94.439 137.182 94.439 224.588 0 87.651-31.1 161.566-94.32 224.044-8.694 8.592-17.351 16.499-25.512 23.349-58.055 47.307-124.877 70.732-202.106 70.732v82.698c96.512 0 182.152-30.022 255.725-89.979 10.384-8.709 20.713-18.143 30.99-28.299 78.884-77.958 118.834-172.905 118.834-282.544 0-109.321-39.918-204.352-117.045-281.088-9.87-11.057-19.573-20.647-28.119-27.848L467.376 70.651l-3.894-1.648-26.93-25.885zm-31.221 452.524c-35.43 0-64.152 28.408-64.152 63.451s28.722 63.451 64.152 63.451 64.152-28.408 64.152-63.451-28.722-63.451-64.152-63.451z" data-tags="location" glyph-name="location" horiz-adv-x="811" unicode=""/><glyph d="M512-64C229.23-64 0 165.23 0 448s229.23 512 512 512 512-229.23 512-512S794.77-64 512-64zM310.696 652.8c-19.019 0-25.916-1.98-32.869-5.699s-12.41-9.175-16.128-16.128c-3.719-6.953-5.699-13.85-5.699-32.869V280.83c0-19.019 1.98-25.916 5.699-32.869s9.175-12.41 16.128-16.128c6.953-3.719 13.85-5.699 32.869-5.699h402.608c19.019 0 25.916 1.98 32.869 5.699s12.41 9.175 16.128 16.128c3.719 6.953 5.699 13.85 5.699 32.869v317.274c0 19.019-1.98 25.916-5.699 32.869s-9.175 12.41-16.128 16.128c-6.953 3.719-13.85 5.699-32.869 5.699H310.696zM256 550.4h512v-51.2H256v51.2zm51.2-204.8h51.2v-51.2h-51.2v51.2zm102.4 0H512v-51.2H409.6v51.2z" data-tags="payments" glyph-name="payments" unicode=""/><glyph d="M512 409.836 985.836-64l38.137 38.137-473.834 473.838 473.86 473.86-38.137 38.137L512 486.114 38.12 959.999.027 921.808l473.834-473.834L.001-25.882l38.191-38.093 473.809 473.809z" data-tags="close-thin" glyph-name="close-thin" unicode=""/><glyph d="M512 84.945c200.509 0 363.055 162.545 363.055 363.055S712.51 811.055 512 811.055c-200.509 0-363.055-162.545-363.055-363.055S311.49 84.945 512 84.945zm-416.352 409.6c21.464 194.17 175.637 348.343 369.807 369.807V960h93.091v-95.648c194.17-21.464 348.343-175.637 369.807-369.807h95.648v-93.091h-95.648C906.889 207.284 752.716 53.111 558.546 31.647v-95.648h-93.091v95.648C271.285 53.111 117.112 207.284 95.648 401.454H0v93.091h95.648zM512 354.909c51.413 0 93.091 41.678 93.091 93.091S563.413 541.091 512 541.091 418.909 499.413 418.909 448s41.678-93.091 93.091-93.091z" data-tags="location-crosshair" glyph-name="location-crosshair" unicode=""/><glyph d="M757.814 521.362 720.585 71.709c-5.189-62.679-60.386-113.49-123.518-113.49H161.451c-63.027 0-118.319 50.696-123.518 113.49L.704 521.362h757.109zM194.897 115.516h368.724v45.511H194.897v-45.511zM210.7 695.668c0 26.433 16.856 44.055 42.14 44.055s42.14-17.622 42.14-44.055-16.856-44.055-42.14-44.055-42.14 17.622-42.14 44.055zm126.419 132.166c0 26.433 16.856 44.055 42.14 44.055s42.14-17.622 42.14-44.055-16.856-44.055-42.14-44.055-42.14 17.622-42.14 44.055zm168.56 88.111c0 26.433 16.856 44.055 42.14 44.055s42.14-17.622 42.14-44.055-16.856-44.055-42.14-44.055-42.14 17.622-42.14 44.055zm-337.119 0c0 26.433 16.856 44.055 42.14 44.055s42.14-17.622 42.14-44.055-16.856-44.055-42.14-44.055-42.14 17.622-42.14 44.055zm294.979-220.277c0 26.433 16.856 44.055 42.14 44.055s42.14-17.622 42.14-44.055-16.856-44.055-42.14-44.055-42.14 17.622-42.14 44.055z" data-tags="order-confirmed" glyph-name="order-confirmed" horiz-adv-x="759" unicode=""/><glyph d="M742.476-63.581a30.968 30.968 0 0 0-5.084-.419H153.044C68.656-64 .001 4.655.001 89.043v15.304c0 42.209 34.343 76.522 76.522 76.522h523.13c42.209 0 76.522-34.312 76.522-76.522V89.043a108.11 108.11 0 0 1 4.499-30.945c11.08-36.394 40.006-60.881 72.022-60.881 16.927 0 30.609-13.682 30.609-30.609s-13.682-30.609-30.609-30.609c-3.431 0-6.839.141-10.22.419zm-21.78 197.146v15.304c0 42.209-34.312 76.522-76.522 76.522H169.739V883.57c0 42.148 34.282 76.43 76.43 76.43h612.388c42.118 0 76.399-34.282 76.399-76.43V133.565c0-71.543-44.418-131.779-104.213-148.458a124.531 124.531 0 0 0-33.526-4.585c16.927 0 30.609 13.682 30.609 30.609S814.144 41.74 797.217 41.74c-32.017 0-60.942 24.487-72.022 60.881a108.121 108.121 0 0 0-4.499 30.945zm-36.174 541.218c0 14.618-11.843 26.435-26.435 26.435s-26.435-11.816-26.435-26.435V569.044c0-14.618 11.843-26.435 26.435-26.435s26.435 11.816 26.435 26.435v105.739zM516.174 425.739c-17.217 4.874-28.373-9.07-26.435-26.435 1.385-12.411 31.815-31.95 79.223-33.182s78.43 19.387 79.385 33.182c.956 13.795-15.502 34.212-26.435 26.435-5.809-4.133-18.03-17.145-55.328-17.644-28.204-.377-36.918 13.824-50.411 17.644zm-9.739 249.044c0 14.618-11.816 26.435-26.435 26.435-14.592 0-26.435-11.816-26.435-26.435V569.044c0-14.618 11.843-26.435 26.435-26.435 14.618 0 26.435 11.816 26.435 26.435v105.739z" data-tags="order-delivered" glyph-name="order-delivered" horiz-adv-x="935" unicode=""/><glyph d="M742.476-63.581a30.968 30.968 0 0 0-5.084-.419H153.044C68.656-64 .001 4.655.001 89.043v15.304c0 42.209 34.343 76.522 76.522 76.522h523.13c42.209 0 76.522-34.312 76.522-76.522V89.043a108.11 108.11 0 0 1 4.499-30.945c11.08-36.394 40.006-60.881 72.022-60.881 16.927 0 30.609-13.682 30.609-30.609s-13.682-30.609-30.609-30.609c-3.431 0-6.839.141-10.22.419zm-21.78 197.146v15.304c0 42.209-34.312 76.522-76.522 76.522H169.739V883.57c0 42.148 34.282 76.43 76.43 76.43h612.388c42.118 0 76.399-34.282 76.399-76.43V133.565c0-71.543-44.418-131.779-104.213-148.458a124.531 124.531 0 0 0-33.526-4.585c16.927 0 30.609 13.682 30.609 30.609S814.144 41.74 797.217 41.74c-32.017 0-60.942 24.487-72.022 60.881a108.121 108.121 0 0 0-4.499 30.945zM392.968 601.664c5.754-5.785 13.56-8.968 21.64-8.968l2.143.092a30.531 30.531 0 0 1 22.314 12.152l91.826 122.435c10.162 13.529 7.407 32.721-6.122 42.852-13.468 10.162-32.659 7.346-42.822-6.122l-70.645-94.214-36.271 36.271c-11.968 11.968-31.313 11.968-43.281 0s-11.968-31.313 0-43.281l61.217-61.217zm21.641-253.838 2.143.092a30.531 30.531 0 0 1 22.314 12.152l91.826 122.435c10.162 13.529 7.407 32.721-6.122 42.852-13.468 10.162-32.659 7.377-42.822-6.122l-70.645-94.214-36.271 36.271c-11.968 11.968-31.313 11.968-43.281 0s-11.968-31.313 0-43.281l61.217-61.217c5.754-5.785 13.56-8.968 21.64-8.968zm336.695 306.087c16.927 0 30.609 13.713 30.609 30.609s-13.682 30.609-30.609 30.609H628.869c-16.927 0-30.609-13.713-30.609-30.609s13.682-30.609 30.609-30.609h122.435zm0-244.87c16.927 0 30.609 13.682 30.609 30.609 0 16.896-13.682 30.609-30.609 30.609H628.869c-16.927 0-30.609-13.713-30.609-30.609 0-16.927 13.682-30.609 30.609-30.609h122.435z" data-tags="order-received" glyph-name="order-received" horiz-adv-x="935" unicode=""/><glyph d="M875.352 815.003a18.611 18.611 0 0 0 1.892 2.504l82.477 95.947H55.856l75.504-95.947a18.675 18.675 0 0 0 1.892-2.504 18.611 18.611 0 0 0-1.892-2.504l-75.504-95.947h903.865l-82.477 95.947a18.675 18.675 0 0 0-1.892 2.504zm128.117 133.728c.896-1.878.746-4.07 1.045-6.104.299-1.096 1.045-1.878 1.045-3.13l-46.545-119.132s44.785-102.657 45.232-103.126c.896-.783 1.941-1.096 2.836-2.035.746-1.096 1.194-2.504 3.284-6.104 1.194-3.13 1.791-6.574 1.493-9.861l-78.373-721.87c-1.194-10.487-9.554-18.313-19.407-18.313H100.193c-9.853 0-18.212 7.826-19.407 18.313L2.413 699.239c-.299 3.287.299 6.73 2.836 12.365.746 1.096 1.194 2.504 2.09 3.6.746.939 1.791 1.252 3.881 3.443l35.324 101.717L8.712 939.496c0 1.252.746 2.035 1.045 3.13.299 2.035.149 4.226 2.239 7.513.896 1.409 1.941 2.348 2.986 3.443 1.791 1.722 3.583 3.13 5.673 4.226.746.313 1.194 1.096 4.329 1.252 1.194.313 2.09.939 3.284.939h957.733c1.194 0 2.09-.626 3.135-.939.896-.157 1.791.313 4.478-1.252 2.09-1.096 3.881-2.504 5.673-4.226 1.045-1.096 2.09-2.035 4.18-4.852zM278.855 460.542c22.392-131.007 110.767-229.302 216.16-229.302s193.768 98.295 216.16 229.302c26.423 7.2 46.128 32.4 46.128 62.295 0 35.687-27.766 64.799-61.803 64.799s-61.654-29.113-61.654-64.799c0-26.921 15.675-49.93 38.067-59.634-20.302-109.564-91.808-190.798-176.899-190.798s-156.597 81.234-176.75 190.641c22.243 9.861 37.918 32.869 37.918 59.791 0 35.687-27.617 64.799-61.654 64.799s-61.803-29.113-61.803-64.799c0-29.895 19.705-55.095 46.128-62.295z" data-tags="order-pickedup" glyph-name="order-pickedup" unicode=""/><glyph d="M512-64C229.23-64 0 165.23 0 448s229.23 512 512 512 512-229.23 512-512S794.77-64 512-64zM321.089 652.8l-38.106-74.952-26.982-383.153h512l-27.956 383.153L701.96 652.8H321.09zm297.196-218.462c0-60.082-47.305-108.857-105.655-108.857-58.326 0-105.632 48.751-105.632 108.857v27.944c-9.61 4.703-16.262 14.793-16.262 26.479 0 16.187 12.729 29.303 28.452 29.303 15.7 0 28.441-13.115 28.441-29.303 0-11.686-6.651-21.776-16.262-26.479v-27.944c0-46.246 36.399-83.737 81.262-83.737 44.886 0 81.285 37.491 81.285 83.737v27.944c-9.61 4.703-16.262 14.793-16.262 26.479 0 16.187 12.741 29.303 28.452 29.303 15.7 0 28.441-13.115 28.441-29.303 0-11.686-6.651-21.776-16.262-26.479v-27.944z" data-tags="orders" glyph-name="orders" unicode=""/><glyph d="m524.047 232.762 6.792 6.601a19.713 19.713 0 0 0 3.16 1.7l108.659 99.583c4.538 3.884 9.237 8.581 14.099 14.087 40.029 40.319 60.042 88.49 60.042 144.516 0 56.186-20.013 104.277-60.042 144.273-5.348 5.343-10.696 10.281-16.044 14.816C603.764 688.779 560.818 704 511.877 704c-48.778 0-91.563-15.222-128.349-45.662a126.444 126.444 0 0 1-7.049-6.072 231.216 231.216 0 0 1-9.237-8.744c-40.027-39.996-60.042-88.087-60.042-144.273 0-18.136 2.108-35.541 6.32-52.22 7.779-30.441 22.687-58.212 44.728-83.309l.972-.729a380.364 380.364 0 0 1 8.022-8.258c7.293-8.258 15.071-15.222 23.336-20.888l109.374-99.743v-84.266h24.094v82.927zM512-64C229.23-64 0 165.23 0 448s229.23 512 512 512 512-229.23 512-512S794.77-64 512-64z" data-tags="manage-addresses" glyph-name="manage-addresses" unicode=""/><glyph d="M512-64C229.23-64 0 165.23 0 448s229.23 512 512 512 512-229.23 512-512S794.77-64 512-64zm218.318 486.466c50.253 52.709 50.232 138.104 0 190.792-25.671 26.922-59.514 40.089-93.144 39.521-47.074-.83-124.704-66.137-124.704-66.137s-79.807 66.225-128.033 66.159c-32.862-.066-65.702-13.232-90.754-39.543-50.232-52.687-50.253-138.083 0-190.792l218.318-228.871 218.318 228.871z" data-tags="favourites" glyph-name="favourites" unicode=""/><glyph d="M639.588 750.933c-46.292 120.97-128.776 189.864-245.769 205.817-117.834 15.961-221.36-26.874-310.578-128.531-89.217-101.64-106.893-204.137-52.184-307.457 54.709-102.497 140.56-175.583 258.394-219.267 116.993-42.004 217.994-78.127 302.161-106.681 42.925-15.13 90.901-8.401 143.085 18.473 39.559 25.202 69.859 58.805 90.059 103.337 16.833 60.477 9.258 109.209-22.725 146.164-60.601 69.726-115.309 166.334-162.443 288.144zm143.266-568.487c64.558-42.023 94.732-80.544 91.224-116.957-4.21-44.832 7.719-76.349 37.191-94.552 28.771-18.217 55.436-20.318 78.593-6.31 23.859 14.008 32.279 41.33 26.665 83.353 50.524 26.615 65.962 56.724 47.717 88.942-18.946 31.517-47.717 44.131-87.013 36.42-23.859-2.101-63.857 29.416-119.293 95.259-16.841-37.127-42.103-65.843-75.084-86.154zM328.392 780.022c-14.767 0-13.945 13.823-14.767 23.216s5.801 17.708 14.767 18.493c96.415 8.435 211.528-70.064 222.561-196.171.822-9.393-5.821-17.674-14.804-18.46-8.966-.784-28.789 0-28.789 18.46 0 103.323-97.785 154.462-178.968 154.462z" data-tags="meat" glyph-name="meat" horiz-adv-x="1072" unicode=""/><glyph d="M995.025 791.067s44.479-197.771 23.22-418.823c-16.591-172.385-95.217-272.013-142.621-314.402C699.83-99.359 547.262-26.203 434.493-29.623c0 0 202.323 194.487 311.773 355.823 114.846 169.285 195.691 369.179 195.691 369.179S788.941 392.814 646.769 230.616C477.975 38.05 408.691-4.263 408.691-4.263S149.255 449.324 995.025 791.066zM346.11 233.041c-19.227 83.403-55.098 224.376-98.953 327.798C177.693 724.656 70.937 876.42 70.937 876.42s147.749-253.034 199.794-434.445c61.789-215.368 60.83-287.186 60.83-287.186S-110.654 162.208 26.322 960c0 0 161.818-55.456 310.64-171.445 116.056-90.46 151.95-195.264 160.925-250.469a466.211 466.211 0 0 0 2.504-17.51c-66.489-63.724-112.351-132.345-136.425-204.22-9.874-29.478-15.342-57.496-17.857-83.314z" data-tags="leaf" glyph-name="leaf" unicode=""/><glyph d="m481.315-4.172-60.233-45.094c-22.636-16.947-54.724-12.334-71.671 10.302a51.194 51.194 0 0 0-6.069 10.506l-29.853 69.616c-8.939 20.844-30.525 33.324-53.049 30.669l-74.791-8.815c-28.083-3.31-53.531 16.773-56.841 44.855a51.242 51.242 0 0 0-.007 11.93l8.849 75.801c2.62 22.441-9.779 43.947-30.513 52.923l-69.632 30.146c-25.95 11.234-37.879 41.378-26.644 67.327a51.158 51.158 0 0 0 5.86 10.156l45.497 61.352c13.432 18.113 13.432 42.882 0 60.996L16.721 539.85c-16.843 22.713-12.085 54.78 10.628 71.624a51.215 51.215 0 0 0 10.156 5.86l69.632 30.146c20.734 8.976 33.133 30.482 30.513 52.923l-8.849 75.801c-3.279 28.086 16.832 53.513 44.918 56.791 3.963.463 7.967.46 11.93-.007l74.791-8.815c22.524-2.655 44.11 9.825 53.049 30.669l29.853 69.616c11.145 25.988 41.247 38.021 67.235 26.877a51.24 51.24 0 0 0 10.506-6.069l60.233-45.094c18.19-13.618 43.179-13.618 61.369 0l60.233 45.094c22.636 16.947 54.724 12.334 71.671-10.302a51.194 51.194 0 0 0 6.069-10.506l29.853-69.616c8.939-20.844 30.525-33.324 53.049-30.669l74.791 8.815c28.083 3.31 53.531-16.773 56.841-44.855.467-3.963.469-7.966.007-11.93l-8.849-75.801c-2.62-22.441 9.779-43.947 30.513-52.923l69.632-30.146c25.95-11.234 37.879-41.378 26.645-67.327a51.158 51.158 0 0 0-5.86-10.156l-45.497-61.352c-13.432-18.113-13.432-42.882 0-60.996l45.497-61.352c16.843-22.713 12.085-54.78-10.628-71.624a51.215 51.215 0 0 0-10.156-5.86l-69.632-30.146c-20.734-8.976-33.133-30.482-30.513-52.923l8.849-75.801c3.279-28.086-16.832-53.513-44.918-56.791a51.187 51.187 0 0 0-11.93.007l-74.791 8.815c-22.524 2.655-44.11-9.825-53.049-30.669l-29.853-69.616c-11.145-25.988-41.247-38.021-67.235-26.877a51.24 51.24 0 0 0-10.506 6.069L542.685-4.172c-18.19 13.618-43.179 13.618-61.369 0zm169.119 617.2-349.22-332.604c-13.597-14.695-12.156-36.622 2.902-49.298s38.029-11.3 51.309 3.073l349.058 332.43c13.597 14.695 12.156 36.622-2.902 49.298-14.996 12.624-37.843 11.311-51.146-2.899zm-2.375-390.934c36.138 0 65.434 27.963 65.434 62.458s-29.296 62.458-65.434 62.458-65.434-27.963-65.434-62.458 29.296-62.458 65.434-62.458zM357.242 499.685c36.138 0 65.434 27.963 65.434 62.458s-29.296 62.458-65.434 62.458-65.434-27.963-65.434-62.458 29.296-62.458 65.434-62.458z" data-tags="offer-filled" glyph-name="offer-filled" unicode=""/><glyph d="M904.533 725.333 512 332.8 119.467 725.333 0 693.166l512-512 512 512z" data-tags="down-arrow" glyph-name="down-arrow" unicode=""/><glyph d="m106.668 480.513 917.332.009V413.43l-5.124-.178H106.668l-5.124 5.124v57.013l5.124 5.124zm-71.011-.068 322.514 322.514 3.886 3.441 46.892-46.936-3.218-4.065L83.217 432.885h-7.246l-40.314 40.314v7.246zm370.075-342.078 3.462-3.742-46.98-47.489-4.043 3.671L35.657 413.321v7.246l40.314 40.314h7.246l322.514-322.514zM104.57 548.169l8.691-3.697-.717-195.989-8.704-3.647L0 446.602l3.537 3.572 101.032 97.995z" data-tags="back" glyph-name="back" unicode=""/><glyph d="m914.968 731.382-56.266 110.733H163.209L106.94 731.439 57.813 33.833h908.05l-50.896 697.55zM130.155 896h761.609l76.157-149.879 55.903-766.175H0l53.956 766.175L130.156 896zm594.29-436.849c0-120.144-94.595-217.677-211.273-217.677-116.632 0-211.227 97.486-211.227 217.677v55.878c-19.217 9.404-32.518 29.581-32.518 52.948 0 32.369 25.455 58.595 56.894 58.595 31.394 0 56.871-26.226 56.871-58.595 0-23.367-13.301-43.545-32.518-52.948v-55.878c0-92.477 72.786-167.445 162.497-167.445 89.756 0 162.542 74.969 162.542 167.445v55.878c-19.217 9.404-32.518 29.581-32.518 52.948 0 32.369 25.478 58.595 56.894 58.595 31.394 0 56.871-26.226 56.871-58.595 0-23.367-13.301-43.545-32.518-52.948v-55.878z" data-tags="cart-inverse" glyph-name="cart-inverse" unicode=""/><glyph d="M936.889 960 1024 872.889 599.111 448 1024 23.111 936.889-64 512 360.889 87.111-64 0 23.111 424.889 448 0 872.889 87.111 960 512 535.111z" data-tags="close" glyph-name="close" unicode=""/><glyph d="m490.819 160.936 259.464 281.311 97.404-83.201L430.243-64.92 12.799 359.046l97.404 83.201 274.39-297.493V960H490.82z" data-tags="down-arrow-2" glyph-name="down-arrow-2" horiz-adv-x="853" unicode=""/><glyph d="M119.467 746.667 512 337.991l392.533 408.676L1024 648.674l-512-499.34L0 648.674z" data-tags="down-arrow-small" glyph-name="down-arrow-small" unicode=""/><glyph d="M948.636 435.331c100.506 105.418 100.463 276.209 0 381.583-51.341 53.844-119.028 80.177-186.289 79.042-94.147-1.659-249.409-132.275-249.409-132.275S353.323 896.13 256.871 895.999c-65.724-.131-131.405-26.464-181.509-79.085-100.463-105.374-100.506-276.165 0-381.583L511.998-22.412l436.636 457.743z" data-tags="heart-filled" glyph-name="heart-filled" unicode=""/><glyph d="M896.327 488.951c73.862 77.478 73.85 204.355-.003 281.818-35.974 37.728-83.582 57.481-132.702 56.651-12.311-.217-33.382-6.691-59.368-19.239-19.131-9.238-39.941-21.225-61.647-35.286-20.624-13.359-40.852-27.79-59.708-42.216-11.216-8.581-19.325-15.124-23.428-18.575l-46.215-38.878-46.476 38.566c-4.16 3.452-12.387 9.996-23.774 18.58-19.148 14.434-39.707 28.873-60.693 42.243-22.531 14.354-44.136 26.551-63.991 35.881-26.842 12.615-48.591 18.975-61.307 18.957-48.039-.096-94.206-19.784-129.337-56.681-73.858-77.468-73.868-204.35-.013-281.814L511.998 86.047l384.327 402.904zm52.309-49.884L512-18.676 75.364 439.067c-100.506 105.418-100.463 276.209 0 381.583 50.104 52.622 115.785 78.954 181.509 79.085 96.452.131 256.067-132.318 256.067-132.318s155.262 130.615 249.409 132.275c67.26 1.135 134.947-25.197 186.289-79.042 100.463-105.374 100.506-276.165 0-381.583z" data-tags="heart" glyph-name="heart" unicode=""/><glyph d="M623.787 477.257h87.04V755.2h-87.04V960H522.24V755.2H435.2V477.257h87.04V-64h101.547v541.257zm-435.2-365.714h87.04v277.943h-87.04V960H87.04V389.486H0V111.543h87.04V-64h101.547v175.543z" data-tags="filter" glyph-name="filter" horiz-adv-x="725" unicode=""/><glyph d="M63.876-4.979h216.063l-.149 336.84h358.547V-9.467l213.348.865v517.015L457.802 873.222 63.876 513.57V-4.979zM343.844-64H0v605.746L458.112 960l457.449-423.683V-64H574.46v331.985H343.694L343.843-64z" data-tags="home" glyph-name="home" horiz-adv-x="939" unicode=""/><glyph d="M512.05 953.75c140.022 0 259.69-49.658 359.008-148.976s148.976-218.986 148.976-359.008-49.658-259.69-148.976-359.008S652.072-62.218 512.05-62.218 252.36-12.56 153.042 86.758 4.066 305.744 4.066 445.766s49.658 259.69 148.976 359.008S372.028 953.75 512.05 953.75zm0-940.697c119.317 0 221.264 42.289 305.844 126.869s126.869 186.526 126.869 305.844c0 119.317-42.289 221.264-126.869 305.844S631.368 878.479 512.05 878.479c-119.317 0-221.264-42.289-305.844-126.869S79.337 565.084 79.337 445.766c0-119.317 42.289-221.264 126.869-305.844S392.732 13.053 512.05 13.053zm-50.188 625.1c0 37.895 18.947 56.843 56.843 56.843s56.843-18.947 56.843-56.843c0-37.895-18.947-56.843-56.843-56.843s-56.843 18.947-56.843 56.843zm109.666-423.169h39.808V195.08l-169.379 2.311v19.904h39.808v298.563h-39.808v19.904l129.571-2.311z" data-tags="info" glyph-name="info" unicode=""/><glyph d="M992 64c-17.696 0-32 14.304-32 32v784.096c0 8.768-7.136 15.904-15.872 15.904H303.904c-8.768 0-15.904-7.136-15.904-15.904V160c0-17.696-14.336-32-32-32s-32 14.304-32 32v720.096C224 924.16 259.84 960 303.904 960h640.224c44.032 0 79.872-35.84 79.872-79.904V96c0-17.696-14.304-32-32-32zM864-64H160C71.776-64 0 7.776 0 96v16c0 44.128 35.904 80 80 80h640c44.128 0 80-35.872 80-80V96c0-17.696-14.304-32-32-32s-32 14.304-32 32v16c0 8.8-7.2 16-16 16H80c-8.8 0-16-7.2-16-16V96c0-52.928 43.072-96 96-96h704c17.696 0 32-14.304 32-32s-14.304-32-32-32zM480 576c-8.448 0-16.608 3.328-22.624 9.376l-64 64c-12.512 12.512-12.512 32.736 0 45.248s32.736 12.512 45.248 0l37.92-37.92L550.4 755.2c10.624 14.08 30.688 17.024 44.768 6.4 14.144-10.592 17.024-30.656 6.4-44.8l-96-128a31.921 31.921 0 0 0-23.328-12.704L480 576zm0-256c-8.448 0-16.608 3.328-22.624 9.376l-64 64c-12.512 12.512-12.512 32.736 0 45.248s32.736 12.512 45.248 0l37.92-37.92L550.4 499.2c10.624 14.112 30.688 17.024 44.768 6.4 14.144-10.592 17.024-30.656 6.4-44.8l-96-128a31.921 31.921 0 0 0-23.328-12.704L480 320zm352 320H704c-17.696 0-32 14.336-32 32s14.304 32 32 32h128c17.696 0 32-14.336 32-32s-14.304-32-32-32zm0-256H704c-17.696 0-32 14.304-32 32 0 17.664 14.304 32 32 32h128c17.696 0 32-14.336 32-32 0-17.696-14.304-32-32-32zm48-448c-17.696 0-32 14.304-32 32s14.304 32 32 32c44.128 0 80 43.072 80 96 0 17.696 14.304 32 32 32s32-14.304 32-32c0-88.224-64.608-160-144-160zm0 0c-61.856 0-116.704 43.84-136.544 109.12C738.496 61.6 736 78.688 736 96c0 17.696 14.304 32 32 32s32-14.304 32-32c0-11.072 1.6-21.952 4.704-32.352C816.288 25.6 846.528 0 880 0c17.696 0 32-14.304 32-32s-14.304-32-32-32z" data-tags="order-recieved-inverse" glyph-name="order-recieved-inverse" unicode=""/><glyph d="M938.328 878.934H792.367c-40.725 0-73.83-33.359-73.83-74.51V514.212c0-41.496 33.055-74.51 73.83-74.51h140.905V.471h87.846v878.462h-82.79zM302.581 527.549v351.385h-87.846V527.549H87.846v351.385H0V439.703h214.735V.472h87.846v439.231h214.735v439.231H429.47V527.549z" data-tags="menu" glyph-name="menu" unicode=""/><glyph d="M14.222 55.467 403.437 448 14.222 840.533 107.549 960l475.562-512L107.549-64z" data-tags="right-arrow" glyph-name="right-arrow" horiz-adv-x="597" unicode=""/><glyph d="M217.101 68.511c3.393-43.804 42.77-80.147 86.831-80.147h416.137c44.15 0 84.249 36.734 88.058 80.62l33.658 387.8H187.024l30.077-388.273zm-85.397 439.473h765.917L859.135 64.557C853.029-5.8 790.771-62.836 720.069-62.836H303.932c-70.698 0-132.411 56.819-137.878 127.393l-34.349 443.427zM341.333 683.83c0-26.764 17.067-44.606 42.667-44.606s42.667 17.842 42.667 44.606c0 26.764-17.067 44.606-42.667 44.606s-42.667-17.842-42.667-44.606zm128 133.818c0-26.764 17.067-44.606 42.667-44.606s42.667 17.842 42.667 44.606c0 26.764-17.067 44.606-42.667 44.606s-42.667-17.842-42.667-44.606zM640 906.861c0-26.764 17.067-44.606 42.667-44.606s42.667 17.842 42.667 44.606c0 26.764-17.067 44.606-42.667 44.606S640 933.625 640 906.861zm-341.333 0c0-26.764 17.067-44.606 42.667-44.606s42.667 17.842 42.667 44.606c0 26.764-17.067 44.606-42.667 44.606s-42.667-17.842-42.667-44.606zM597.333 683.83c0-26.764 17.067-44.606 42.667-44.606s42.667 17.842 42.667 44.606c0 26.764-17.067 44.606-42.667 44.606s-42.667-17.842-42.667-44.606zM304 98.133h416V140.8H304z" data-tags="order-confirmed-inverse" glyph-name="order-confirmed-inverse" unicode=""/><glyph d="M512 960c-18.998 0-34.77-13.348-39.687-31.61L371.622 603.825H40.955C18.122 603.825 0 583.106 0 559.085c0-14.699 7.037-27.826 17.705-35.63 6.608-4.672 267.088-203.236 267.088-203.236S184.753-.348 182.813-5.459c-1.479-4.672-2.543-9.803-2.543-15.13 0-24.043 18.543-43.412 41.378-43.412 8.749 0 16.855 2.894 23.685 7.779L512 146.369S772.691-51.763 778.67-56.222c6.807-4.886 14.936-7.779 23.664-7.779 22.835 0 41.397 19.587 41.397 43.412 0 5.327-1.057 10.457-2.564 15.13-1.914 5.111-101.956 325.678-101.956 325.678s260.459 198.563 267.081 203.236c10.667 7.804 17.709 20.932 17.709 35.846 0 23.808-17.709 44.524-40.544 44.524H652.795L551.665 928.39c-4.889 18.261-20.689 31.61-39.664 31.61z" data-tags="star-filled" glyph-name="star-filled" unicode=""/><glyph d="M208.92 159.172C292.765 52.206 421.765-16.31 566.449-16.31 819.147-16.31 1024 192.693 1024 450.512S819.148 917.334 566.449 917.334c-249.493 0-452.346-203.735-457.452-457.036h61.022c5.094 218.922 180.631 394.793 396.43 394.793 219.005 0 396.544-181.136 396.544-404.579S785.454 45.933 566.449 45.933c-127.848 0-241.566 61.729-314.082 157.568l-43.448-44.328zm-72.674 153.006 136.246 166.827H-.001zm397.267 382.72V436.767l186.603-131.131 31.391 62.468-152.596 107.383v219.412z" data-tags="recent" glyph-name="recent" unicode=""/><glyph d="M283.515 77.302 512 197.424 740.485 77.302l-43.637 254.422 184.849 180.183-255.454 37.12L512 780.508 397.757 549.027l-255.454-37.12 184.849-180.183-43.637-254.422zm-87.948-121.05L256 308.606 0 558.144l353.783 51.408L512 930.134l158.217-320.582L1024 558.144 768 308.606l60.433-352.354L512 122.611 195.567-43.748z" data-tags="star" glyph-name="star" unicode=""/><glyph d="M663.03 484.651c4.745 26.935-.69 47.645-14.702 58.458-21.078 16.264-52.736 25.109-128.14 25.109-55.79 0-115.686-.06-141.279-.047-2.377.466-10.971 3.268-11.295 13.657l-.349 164.944c-.009 10.411 8.301 18.88 18.574 18.902 10.29.017 18.638-8.421 18.646-18.824 0 0 .256-89.54.281-121.361 0-3.073 1.772-10.247 8.68-12.116 45.04-12.159 272.719-3.268 269.18 38.567-19.319 173.534-164.244 308.061-340.201 308.061-55.411 0-107.87-13.355-154.325-37.039C76.929 865.07-2.027 748.219.039 613.248c1.465-95.661 63.733-265.695 101.852-290.933 17.569-11.641 40.704-7.334 144.167-7.334 46.918 0 90.608-.155 112.078-.255 2.232-.423 13.936-3.138 13.936-14.033l.273-125.384c.026-10.416-8.292-18.88-18.582-18.884-10.273-.017-18.617 8.413-18.634 18.82 0 0 .916 50.313.916 69.076 0 4.342.311 11.801-12.202 17.443-41.211 18.565-175.037 7.36-182.545-13.126-2.875-7.882 12.087-38.347 35.121-77.411C253.155 48.636 328.495-46.952 340.676-62.245a36.818 36.818 0 0 1 2.125-1.752c10.047 12.375 277.95 309.118 320.23 548.651z" data-tags="swgy-filled" glyph-name="swgy-filled" horiz-adv-x="683" unicode=""/><glyph d="M616.76 489.821c4.065 23.794-.591 42.09-12.596 51.642-18.058 14.368-45.18 22.181-109.778 22.181-47.796 0-99.109-.053-121.035-.042-2.036.412-9.399 2.887-9.677 12.065l-.299 145.712c-.007 9.197 7.112 16.679 15.912 16.698 8.816.015 15.967-7.439 15.975-16.629 0 0 .219-79.1.241-107.211 0-2.715 1.518-9.052 7.436-10.704 38.586-10.742 233.641-2.887 230.609 34.071-16.551 153.3-140.709 272.141-291.453 272.141-47.471 0-92.414-11.798-132.211-32.721-95.241-51.142-162.883-154.368-161.113-273.601 1.255-84.507 54.601-234.715 87.258-257.01 15.051-10.284 34.872-6.479 123.509-6.479 40.195 0 77.625-.137 96.019-.225 1.912-.374 11.939-2.772 11.939-12.397l.234-110.764c.022-9.201-7.104-16.679-15.92-16.683-8.801-.015-15.949 7.432-15.964 16.625 0 0 .784 44.446.784 61.022 0 3.836.266 10.425-10.454 15.409-35.306 16.4-149.955 6.501-156.388-11.596-2.463-6.963 10.355-33.876 30.088-68.385C265.617 104.643 330.161 20.2 340.596 6.69a31.699 31.699 0 0 1 1.821-1.548c8.608 10.932 238.122 273.075 274.343 484.678zM109.123 304.509C59.085 338.671 1.482 505.5.039 602.654-1.96 737.332 72.432 859.878 187.747 921.797c47.523 24.984 100.129 38.204 154.348 38.204 174.693 0 320.492-137.158 340.016-318.16 2.881-35.112-10.447-55.559-39.548-68.493 21.723-22.92 28.332-56.319 22.194-92.245-6.497-37.956-18.551-77.948-35.563-119.848-25.761-63.449-62.305-129.987-106.944-198.154-30.419-46.453-62.843-91.011-95.804-132.974-19.383-24.677-51.769-63.742-46.194-56.661L341.246-64l-27.993 28.876c-2.953 2.379-2.953 2.379-4.775 4.013l-6.007 6.491c-12.886 16.683-30.237 40.048-50.898 69.309-31.713 44.911-63.257 92.572-93.683 142.726-34.04 59.529-43.698 80.492-34.76 108.547-4.427 2.161-8.752 4.954-14.01 8.546z" data-tags="swgy" glyph-name="swgy" horiz-adv-x="683" unicode=""/><glyph d="M365.714 68.741 0 420.389l102.4 98.462 263.314-253.187L921.6 800.169l102.4-98.462z" data-tags="tick-sharp" glyph-name="tick-sharp" unicode=""/><glyph d="M920.661 779.078 356.991 211.65 103.34 465.301c-12.526 12.526-26.931 18.789-43.215 18.789s-30.689-6.263-43.215-18.789C5.637 454.028 0 439.936 0 423.026s5.637-31.002 16.91-42.275L315.655 83.885c11.273-12.526 25.365-18.789 42.275-18.789s31.002 6.263 42.275 18.789l7.516 7.516 599.369 603.127c11.273 11.273 16.91 25.365 16.91 42.275s-5.637 31.002-16.91 42.275c-12.526 12.526-26.931 18.789-43.215 18.789s-30.689-6.263-43.215-18.789z" data-tags="tick-round" glyph-name="tick-round" unicode=""/><glyph d="M61.44 898.56V-2.56h901.12v901.12H61.44zM0 960h1024V-64H0V960zm819.2-512c0-169.662-137.538-307.2-307.2-307.2S204.8 278.338 204.8 448c0 169.662 137.538 307.2 307.2 307.2S819.2 617.662 819.2 448z" data-tags="food-symbol" glyph-name="food-symbol" unicode=""/><glyph d="m443.143 902.082 20.817 30.638c24.906 36.653 78.669 36.31 103.11-.663l20.432-30.901c25.047-37.888 73.265-52.495 114.883-34.806l33.939 14.424c40.608 17.26 85.656-12.332 86.393-56.76l.612-37.127c.76-45.532 33.48-84.1 77.983-91.904l36.287-6.363c43.42-7.615 65.44-57.063 42.241-94.837l-19.394-31.576c-23.783-38.711-16.933-88.999 16.32-119.815l27.117-25.133c32.436-30.072 24.446-83.682-15.322-102.812l-33.253-15.985c-40.761-19.61-61.964-65.645-50.52-109.696l9.334-35.921c11.166-42.982-24.299-83.722-68.02-78.137l-36.542 4.671c-44.804 5.729-87.329-21.445-101.324-64.741l-11.415-35.304c-13.655-42.25-65.338-57.189-99.118-28.66l-28.24 23.846c-34.62 29.243-84.964 29.564-119.952.772l-28.535-23.486c-34.143-28.094-85.633-12.492-98.755 29.924l-10.967 35.452C297.809 60.65 255.63 88.361 210.758 83.21l-36.604-4.202c-43.783-5.025-78.732 36.167-67.028 79l9.788 35.801c11.994 43.902-8.631 90.206-49.142 110.33l-33.037 16.414c-39.536 19.639-46.846 73.34-14.029 102.995l27.429 24.784c33.633 30.393 41.118 80.584 17.823 119.598l-18.991 31.822c-22.728 38.065-.079 87.233 43.426 94.288l36.372 5.9c44.589 7.232 77.802 45.383 79.129 90.898l1.083 37.122c1.293 44.411 46.709 73.426 87.096 55.645l33.758-14.859c41.39-18.221 89.784-4.231 115.314 33.337zM697.27 592.594 427.105 320.628 305.531 442.202c-6.004 6.004-12.908 9.006-20.713 9.006s-14.709-3.002-20.713-9.006c-5.403-5.403-8.105-12.157-8.105-20.262s2.702-14.859 8.105-20.262l143.188-142.287c5.403-6.004 12.157-9.006 20.262-9.006s14.859 3.002 20.262 9.006l3.602 3.602L738.695 552.07c5.403 5.403 8.105 12.157 8.105 20.262s-2.702 14.859-8.105 20.262c-6.004 6.004-12.908 9.006-20.713 9.006s-14.709-3.002-20.713-9.006z" data-tags="verified" glyph-name="verified" unicode=""/><glyph d="M64.674 0h883.874v565.333H64.674V0zM0 629.333h1013.221V-64H0v693.333zm323.368 160h366.484v-64H323.368v64z" data-tags="work" glyph-name="work" unicode=""/><glyph d="M992 64c-17.696 0-32 14.304-32 32v784.096c0 8.768-7.136 15.904-15.872 15.904H303.904c-8.768 0-15.904-7.136-15.904-15.904V160c0-17.696-14.336-32-32-32s-32 14.304-32 32v720.096C224 924.16 259.84 960 303.904 960h640.224c44.032 0 79.872-35.84 79.872-79.904V96c0-17.696-14.304-32-32-32zM864-64H160C71.776-64 0 7.776 0 96v16c0 44.128 35.904 80 80 80h640c44.128 0 80-35.872 80-80V96c0-17.696-14.304-32-32-32s-32 14.304-32 32v16c0 8.8-7.2 16-16 16H80c-8.8 0-16-7.2-16-16V96c0-52.928 43.072-96 96-96h704c17.696 0 32-14.304 32-32s-14.304-32-32-32zm-89.263 732.632v-128c0-17.696-14.336-32-32-32s-32 14.304-32 32v128c0 17.696 14.336 32 32 32s32-14.304 32-32zM595.522 394.871l110.851-64c15.325-8.848 20.545-28.415 11.713-43.713s-28.388-20.561-43.713-11.713l-110.851 64c-15.325 8.848-20.545 28.415-11.713 43.713s28.388 20.561 43.713 11.713zm-36.364 273.761v-128c0-17.696-14.304-32-32-32-17.664 0-32 14.304-32 32v128c0 17.696 14.336 32 32 32 17.696 0 32-14.304 32-32zM880-64c-17.696 0-32 14.304-32 32s14.304 32 32 32c44.128 0 80 43.072 80 96 0 17.696 14.304 32 32 32s32-14.304 32-32c0-88.224-64.608-160-144-160zm0 0c-61.856 0-116.704 43.84-136.544 109.12C738.496 61.6 736 78.688 736 96c0 17.696 14.304 32 32 32s32-14.304 32-32c0-11.072 1.6-21.952 4.704-32.352C816.288 25.6 846.528 0 880 0c17.696 0 32-14.304 32-32s-14.304-32-32-32z" data-tags="order-cancel" glyph-name="order-cancel" unicode=""/><glyph d="M100.545 262.675 27.513 334.64c-29.426 29.003-36.02 74.564-16.036 110.806l49.609 89.937c6.737 12.21 9.57 26.002 8.218 39.884l-9.976 102.374c-4.019 41.245 20.029 80.416 58.49 95.245l95.445 36.812c12.958 5.003 23.945 13.727 31.776 25.244l57.743 84.869C319.907 944.977 348.218 960 378.519 960a90.751 90.751 0 0 0 29.909-5.062l96.636-33.539c12.984-4.511 27.217-4.939 40.458-1.218l98.446 27.667a91.543 91.543 0 0 0 24.685 3.409c32.047 0 62.194-17.181 78.687-44.836l52.598-88.2c7.136-11.97 17.582-21.342 30.211-27.11l93.087-42.496c37.508-17.116 59.192-57.662 52.726-98.596l-16.049-101.583a68.552 68.552 0 0 1 5.835-40.312l44.167-92.769c17.794-37.37 8.508-82.451-22.592-109.633l-77.174-67.435c-10.478-9.158-17.833-21.141-21.285-34.654l-25.413-99.639c-10.246-40.143-46.157-68.666-87.336-69.373l-102.207-1.73c-13.859-.233-27.152-4.66-38.429-12.781l-83.111-59.885c-15.676-11.29-34.146-17.259-53.415-17.259-20.982 0-41.501 7.324-57.801 20.61L361.75 28.36c-10.775 8.782-23.777 13.999-37.605 15.068l-101.917 7.894c-41.057 3.176-75.216 33.811-83.053 74.506l-19.443 100.981c-2.641 13.701-9.28 26.106-19.186 35.866zM60 434.864c-13.952-25.296-9.348-57.094 11.186-77.33l68.788-67.782c12.599-12.41 21.031-28.178 24.385-45.599l18.319-95.111c5.465-28.403 29.305-49.787 57.96-52.003l95.993-7.435c17.579-1.355 34.109-7.978 47.806-19.149l74.787-61.013C470.592.157 484.919-4.946 499.556-4.946c13.454 0 26.344 4.163 37.281 12.044l78.281 56.398c14.334 10.329 31.233 15.951 48.855 16.25l96.266 1.636c28.734.494 53.799 20.401 60.95 48.413l23.936 93.842c4.386 17.19 13.739 32.414 27.054 44.049l72.688 63.528c21.71 18.96 28.188 50.422 15.771 76.512l-41.6 87.371c-7.619 15.999-10.185 33.72-7.419 51.24l15.116 95.691c4.507 28.562-10.621 56.856-36.796 68.808l-87.677 40.02c-16.057 7.325-29.335 19.241-38.409 34.453l-49.54 83.08c-11.513 19.302-32.556 31.291-54.915 31.291-5.811 0-11.604-.8-17.227-2.381l-92.724-26.059c-16.833-4.731-34.922-4.175-51.439 1.55l-91.007 31.596a63.626 63.626 0 0 1-20.873 3.522c-21.152 0-40.909-10.481-52.859-28.043l-54.393-79.936c-9.954-14.638-23.918-25.73-40.381-32.084l-89.909-34.673c-26.836-10.347-43.62-37.688-40.818-66.47l9.396-96.424c1.723-17.648-1.887-35.185-10.446-50.702l-46.72-84.71zm196 144.294C256 649.01 305.788 704 381.585 704c76.54 0 126.328-54.99 126.328-124.842 0-69.109-49.788-121.869-126.328-121.869C305.788 457.289 256 510.05 256 579.158zm77.283-378.241 316.563 495.652h56.476L389.016 200.917h-55.733zM440.29 579.158c0 41.614-24.522 66.136-58.705 66.136-33.44 0-58.705-24.522-58.705-66.136 0-38.642 25.266-63.907 58.705-63.907 34.183 0 58.705 25.266 58.705 63.907zm88.43-264.546c0 69.852 49.788 124.842 125.585 124.842s126.328-54.99 126.328-124.842c0-69.109-50.531-122.612-126.328-122.612S528.72 245.504 528.72 314.612zm185.033 0c0 40.871-25.266 66.136-59.448 66.136S595.6 355.482 595.6 314.612c0-40.128 24.522-64.65 58.705-64.65s59.448 24.522 59.448 64.65z" data-tags="offers-coupon" glyph-name="offers-coupon" unicode=""/><glyph d="M358.4 140.8v409.6h102.4V140.8H358.4zm204.8 0v409.6h102.4V140.8H563.2zM256 38.4v614.4h512V38.4H256zm102.4 716.8v102.4h307.2V755.2H358.4zm409.6 0V960H256V755.2H0V652.8h153.6V-64h716.8v716.8H1024v102.4H768z" data-tags="delete" glyph-name="delete" unicode=""/><glyph d="M343.844-64H0v605.746L458.112 960l457.449-423.683V-64H574.46v331.985H343.694z" data-tags="home-filled" glyph-name="home-filled" horiz-adv-x="939" unicode=""/><glyph d="M427.342 36.211V-68.923h-44.018V40.878L166.049 236.54c-17.269 11.668-33.403 25.901-47.054 41.226-5.273 5.192-10.379 10.372-13.078 13.316l-4.755 4.338c-43.503 48.818-73.14 103.222-88.64 162.997C4.168 491.014-.001 524.952-.001 560.177c0 109.545 39.941 204.123 118.996 281.973 5.99 5.898 12.032 11.533 17.717 16.541 4.715 4.309 9.59 8.449 14.209 12.081 72.812 59.379 157.949 89.229 254.19 89.229 0 0 82.306-62.359 0-62.359v62.359c96.513 0 181.923-29.833 255.366-89.466 10.44-8.724 20.837-18.186 31.194-28.384 79.057-77.846 118.996-172.424 118.996-281.973 0-109.232-39.915-203.912-117.65-280.999-9.818-10.958-19.426-20.42-28.081-27.696L427.343 36.213zm-22.009 458.808c36.466 0 66.027 29.133 66.027 65.07s-29.561 65.07-66.027 65.07-66.027-29.133-66.027-65.07 29.561-65.07 66.027-65.07z" data-tags="marker-filled" glyph-name="marker-filled" horiz-adv-x="811" unicode=""/><glyph d="M0 768h1215.865V-64H0zm388.042 192h439.781v-76.8H388.042V960z" data-tags="work-filled" glyph-name="work-filled" horiz-adv-x="1229" unicode=""/><glyph d="M87.514 960h1085.28c30.431 0 41.465-3.168 52.59-9.118s19.856-14.681 25.806-25.806c5.95-11.125 9.118-22.16 9.118-52.59V23.514c0-30.431-3.168-41.465-9.118-52.59s-14.681-19.856-25.806-25.806c-11.125-5.95-22.16-9.118-52.59-9.118H87.514c-30.431 0-41.465 3.168-52.59 9.118S15.068-40.201 9.118-29.076C3.168-17.951 0-6.916 0 23.514v848.972c0 30.431 3.168 41.465 9.118 52.59s14.681 19.856 25.806 25.806c11.125 5.95 22.16 9.118 52.59 9.118zm868.219-682.667c-37.703 0-68.267-30.564-68.267-68.267s30.564-68.267 68.267-68.267c37.703 0 68.267 30.564 68.267 68.267s-30.564 68.267-68.267 68.267zm-204.8 0c-37.703 0-68.267-30.564-68.267-68.267s30.564-68.267 68.267-68.267c37.703 0 68.267 30.564 68.267 68.267s-30.564 68.267-68.267 68.267zM633.542 679.932H280.069v-54.376h114.516c53.441 0 92.376-27.923 100.011-73.481H280.069v-38.21h214.527c-8.398-45.558-47.333-75.686-100.011-75.686H280.069v-53.641h83.215l129.785-194.725h74.054L429.704 389.682c64.892 5.878 123.677 47.763 131.312 124.183h72.527v38.21h-73.29c-5.344 38.21-25.957 69.807-59.548 89.647h132.839v38.21z" data-tags="paylater" glyph-name="paylater" horiz-adv-x="1297" unicode=""/><glyph d="M303.981 305.69h188.268V140.596h-39.385v125.71H298.166c.05-5.195 1.498-11.284 3.991-17.501 1.575-3.928 3.108-6.871 4.912-10.027 5.517-11.599 13.756-26.707 23.957-44.038 32.271-51.604 66.568-101.907 101.051-149.311a3136.613 3136.613 0 0 1 41.814-56.119c11.018 13.025 25.49 30.308 36.04 43.347 35.571 43.96 70.55 90.622 103.249 139.093 47.369 70.218 85.905 138.329 112.588 202.124 17.021 40.695 28.893 78.932 35.121 114.248 1.226 6.963 1.562 13.281 1.084 22.336 1.677 23.523-1.16 38.309-6.277 46.652H525.565v165.094h39.385v-125.71h167.603c2.813 3.66 7.13 6.382 13.013 7.191 18.161 2.498 27.288 9.052 31.577 18.538 2.679 5.926 3.304 12.707 2.665 18.434C761.911 800.62 630.37 920.614 473.29 920.614c-48.809 0-96.07-11.527-138.671-33.267-104.113-54.269-171.285-161.68-169.49-279.086 1.042-68.086 38.571-189.067 73.869-244.678 23.307-38.98 41.879-50.594 50.978-51.048 5.919-.295 10.736-2.972 14.004-6.846zM659.71 170.619c15.555 23.793 30.096 47.354 43.513 70.615 16.279 10.361 32.5 21.568 48.751 33.641 42.398 31.476 79.853 66.469 111.293 104.372 34.488 41.818 59.07 84.261 72.436 127.576 7.074 22.83 10.288 46.234 9.379 69.145-.781 22.009-6.87 44.224-17.619 64.779-11.461 20.216-27.068 37.81-45.659 51.244-19.15 13.951-41.195 25.053-65.01 32.844a330.652 330.652 0 0 1-17.491 5.207 352.117 352.117 0 0 1-19.942 44.738c20.424-38.388 34.042-81.136 39.162-126.653.152-.886.287-1.834.428-3.103 1.356-12.154.108-25.696-5.921-39.028-5.148-11.384-13.168-20.869-24.02-27.977 9.9-16.139 14.31-39.073 12.32-69.275.601-8.633.043-17.828-1.653-27.458-6.775-38.419-19.495-79.388-37.573-122.611-25.113-60.043-59.984-123.19-102.393-188.058zM132.453 547.24c2.722-14.877 6.186-30.375 10.235-46.02a576.732 576.732 0 0 1-22.216-25.385c-34.257-41.794-58.648-84.214-71.815-127.379-6.957-22.704-10.072-45.958-9.095-68.682.847-21.873 6.984-43.901 17.523-63.838 11.329-20.162 26.745-37.684 45.151-51.065 18.964-13.9 40.823-24.991 64.456-32.795 44.809-14.86 95.495-20.615 151.299-18.383 5.935.252 11.882.591 17.842 1.015a2637.832 2637.832 0 0 1 25.344-37.371c-21.7 31.42-43.099 63.833-63.814 96.966-11.011 18.694-19.769 34.752-24.87 45.731-1.888 3.084-4.411 7.926-6.891 14.111-4.866 12.134-7.537 24.583-6.663 37.034a59.356 59.356 0 0 0 1.783 10.945c-17.173 10-36.2 28.988-54.793 60.08-30.063 47.353-60.371 133.403-73.477 205.035zM659.71 170.619a1727.608 1727.608 0 0 0-13.88-20.895c-33.389-49.495-69.037-97.049-105.282-141.842-21.281-26.299-57.454-68.654-51.606-61.444-6.666-8.219-18.635-9.7-27.103-3.354-1.784 1.396-1.784 1.396-5.635 5.177-14.107 17.729-33.198 42.685-55.977 74a2756.564 2756.564 0 0 0-39.05 55.076 673.667 673.667 0 0 0-40.787-2.992c-60.481-2.428-116.032 3.902-165.933 20.511-27.616 9.154-53.308 22.236-75.696 38.706-23.037 16.807-42.216 38.686-56.471 64.16C8.927 223.075 1.271 250.654.207 278.236c-1.157 27.008 2.519 54.542 10.68 81.275 14.7 48.371 41.489 95.129 78.679 140.667 13.321 16.22 27.64 31.92 42.885 47.063-4.028 22.016-6.431 42.67-6.703 60.42-2.028 132.638 73.621 253.605 190.816 314.691 48.256 24.627 101.647 37.649 156.724 37.649 131.574 0 247.146-74.469 306.07-185.219 17.064-3.214 33.588-7.426 49.551-12.686 27.804-9.129 53.687-22.211 76.271-38.724 23.311-16.906 42.757-38.948 56.943-64.165l-18.049-9.357 18.329 8.841c13.41-25.623 21.049-53.493 22.031-81.305 1.075-27.194-2.712-54.876-11.003-81.731-14.917-48.517-41.908-95.29-79.34-140.842-33.462-40.488-73.135-77.688-117.904-111.045-22.402-16.704-44.823-31.875-67.488-45.562a963.535 963.535 0 0 0-48.991-27.586z" data-tags="super-outline" glyph-name="super-outline" horiz-adv-x="985" unicode=""/><glyph d="M1044.037 565.184c-16.204-55.437-45.883-106.22-81.381-151.66-35.709-45.449-77.438-86.107-122.946-121.774-22.756-17.844-46.296-34.709-70.718-50.222-3.571-2.264-7.189-4.453-10.786-6.675 47.945 80.989 88.717 168.66 103.234 249.797 4.807 26.939-.7 47.65-14.901 58.465-21.36 16.263-53.447 25.109-129.869 25.109-56.538 0-117.237-.063-143.176-.051-2.408.46-11.119 3.268-11.448 13.657l-.354 164.946c-.008 10.41 8.412 18.877 18.822 18.902h.021c10.41.017 18.864-8.424 18.881-18.826 0 0 .257-89.54.282-121.361 0-3.078 1.796-10.246 8.795-12.114 45.647-12.164 276.394-3.272 272.806 38.563-.017.148-.03.304-.046.464-9.171 81.263-46.423 154.021-101.818 208.354 41.945-1.547 83.687-8.045 123.313-21.778 27.225-9.398 53.03-22.954 75.803-40.469 22.866-17.443 41.557-40.056 55.079-65.342 12.776-25.674 20.378-54.012 21.343-82.751 1.079-28.709-2.825-57.596-10.937-85.235zM362.535 104.918c-57.508-2.424-115.934 2.994-170.187 21.984-27.065 9.436-52.659 22.992-75.195 40.435-22.625 17.359-41.026 39.811-54.349 64.84-12.704 25.357-20.331 53.375-21.373 81.874-1.16 28.469 2.623 57.187 10.613 84.716 15.955 55.226 45.394 105.988 80.694 151.449 17.54 22.465 36.569 43.766 56.791 63.895.004-.291-.008-.573-.004-.86 1.484-95.662 64.591-265.697 103.226-290.936 17.806-11.637 41.253-7.332 146.107-7.332 47.548 0 91.829-.156 113.586-.253 2.264-.422 14.125-3.141 14.125-14.036h.051l.223-125.383c.03-10.415-8.403-18.877-18.83-18.881-10.41-.021-18.868 8.412-18.885 18.822 0 0 .928 50.306.928 69.073 0 4.343.316 11.802-12.367 17.443-41.763 18.561-177.393 7.358-185.003-13.126-2.914-7.88 12.253-38.352 35.595-77.413 13.826-21.799 27.601-42.712 40.983-62.504-15.529-1.796-31.113-3.103-46.726-3.807zM1060 650.651c-1.261 29.363-9.31 58.342-22.625 84.45-13.564 25.977-32.517 49.328-55.724 67.37-23.119 18.126-49.34 32.184-76.958 42.012-27.655 9.702-56.226 16.891-85.31 20.88-16.444 2.323-33.002 3.757-49.598 4.474-61.61 55.998-143.438 90.164-233.264 90.164-56.158 0-109.323-13.349-156.403-37.037-85.492-43.926-152.145-121.816-178.43-215.796 96.412 57.204 224.127 95.029 224.127 95.029-131.025-43.682-233.091-140.254-233.483-140.625l-.013-.114c-8.711-7.358-17.321-14.859-25.703-22.651-22.094-20.597-43.488-42.295-62.702-66.109-19.328-23.7-37.155-48.948-52.701-75.996l-5.806-10.162-5.393-10.465c-1.771-3.508-3.626-6.961-5.321-10.52l-4.899-10.802c-6.607-14.374-12.105-29.435-16.697-44.871C3.88 379.026-.965 345.94.161 312.158c.978-33.769 9.803-68.209 25.214-99.292 2.079-3.807 4.254-7.568 6.447-11.313l3.293-5.612 3.689-5.359 7.484-10.625c2.682-3.39 5.49-6.67 8.247-9.989l4.17-4.954c1.421-1.615 2.973-3.095 4.461-4.646l9.044-9.15c3.107-2.93 6.388-5.633 9.588-8.441 3.226-2.783 6.409-5.625 9.854-8.045 26.888-20.492 56.668-35.717 87.161-46.085 30.48-10.646 61.838-16.254 92.849-19.341 31.066-2.998 61.981-3.095 92.504-1.067 22.655 1.396 45.065 4.351 67.205 8.289C483.498 1.767 525.827-51.2 534.745-62.246A39.63 39.63 0 0 1 536.9-64c5.692 6.919 93.043 102.716 176.469 227.686-47.814-19.729-92.765-28.435-92.765-28.435 21.419 8.762 45.997 21.478 67.298 33.263 5.545 2.998 11.072 6.017 16.554 9.103 9.782 5.625 19.438 11.443 29.017 17.363.143.093.325.198.464.283 0 .004 0 .008.004.008 15.457 9.563 30.679 19.467 45.575 29.827 24.291 16.874 47.489 35.22 70.013 54.227 45.153 37.931 85.766 81.094 120.834 128.187 35.089 47 63.545 99.482 79.294 156.07 7.994 28.204 11.726 57.727 10.343 87.069z" data-tags="super-filled" glyph-name="super-filled" horiz-adv-x="1073" unicode=""/><glyph d="M492.308-44.308C220.414-44.308 0 176.106 0 448s220.414 492.308 492.308 492.308S984.616 719.894 984.616 448 764.202-44.308 492.308-44.308zm266.018 550.9c4.056 13.819 6.008 28.263 5.469 42.617-.483 14.37-4.284 28.539-10.672 41.376-6.761 12.643-16.107 23.949-27.539 32.671-11.386 8.757-24.289 15.535-37.901 20.235-19.813 6.866-40.684 10.115-61.656 10.889 27.698-27.166 46.324-63.545 50.909-104.177l.023-.232c1.794-20.918-113.579-25.364-136.403-19.282-3.5.934-4.398 4.518-4.398 6.057-.013 15.911-.141 60.68-.141 60.68-.008 5.201-4.235 9.422-9.441 9.413h-.011c-5.205-.013-9.415-4.246-9.411-9.451l.177-82.473c.164-5.195 4.52-6.599 5.724-6.828 12.97-.006 43.319.025 71.588.025 38.211 0 54.255-4.423 64.935-12.554 7.1-5.408 9.854-15.763 7.45-29.232-7.259-40.568-27.645-84.404-51.617-124.898 1.798 1.111 3.607 2.205 5.393 3.337 12.211 7.756 23.981 16.189 35.359 25.111 22.754 17.833 43.619 38.163 61.473 60.887 17.749 22.72 32.589 48.111 40.69 75.83zM417.575 276.459c-28.754-1.212-57.967 1.497-85.093 10.992-13.533 4.718-26.329 11.496-37.598 20.218-11.313 8.679-20.513 19.906-27.175 32.42-6.352 12.679-10.166 26.688-10.686 40.937-.58 14.235 1.311 28.594 5.306 42.358 7.977 27.613 22.697 52.994 40.347 75.725 8.77 11.232 18.284 21.883 28.395 31.948.002-.145-.004-.287-.002-.43.742-47.831 32.296-132.848 51.613-145.468 8.903-5.819 20.627-3.666 73.053-3.666 23.774 0 45.915-.078 56.793-.126 1.132-.211 7.062-1.571 7.062-7.018h.025l.112-62.692c.015-5.207-4.202-9.438-9.415-9.441-5.205-.011-9.434 4.206-9.443 9.411 0 0 .464 25.153.464 34.537 0 2.171.158 5.901-6.183 8.722-20.882 9.28-88.696 3.679-92.502-6.563-1.457-3.94 6.126-19.176 17.797-38.707a1274.45 1274.45 0 0 1 20.492-31.252c-7.765-.898-15.556-1.552-23.363-1.904zm348.733 272.866c-.63 14.682-4.655 29.171-11.313 42.225-6.782 12.989-16.258 24.664-27.862 33.685-11.559 9.063-24.67 16.092-38.479 21.006-13.828 4.851-28.113 8.445-42.655 10.44-8.222 1.162-16.501 1.878-24.799 2.237C590.395 686.917 549.481 704 504.568 704c-28.079 0-54.661-6.675-78.202-18.518-42.746-21.963-76.072-60.908-89.215-107.898 48.206 28.602 112.064 47.515 112.064 47.515-65.512-21.841-116.546-70.127-116.742-70.313l-.006-.057c-4.356-3.679-8.66-7.429-12.852-11.325-11.047-10.299-21.744-21.147-31.351-33.054-9.664-11.85-18.577-24.474-26.35-37.998l-2.903-5.081-2.696-5.233c-.885-1.754-1.813-3.481-2.661-5.26l-2.45-5.401c-3.304-7.187-6.053-14.717-8.348-22.435-4.609-15.428-7.031-31.971-6.468-48.862.489-16.885 4.902-34.104 12.607-49.646a216.116 216.116 0 0 1 3.223-5.656l1.647-2.806 1.845-2.68 3.742-5.313c1.341-1.695 2.745-3.335 4.124-4.994l2.085-2.477c.71-.807 1.486-1.547 2.23-2.323l4.522-4.575c1.554-1.465 3.194-2.817 4.794-4.221 1.613-1.391 3.204-2.812 4.927-4.022 13.444-10.246 28.334-17.859 43.581-23.043 15.24-5.323 30.919-8.127 46.425-9.67 15.533-1.499 30.991-1.547 46.252-.533 11.327.698 22.532 2.176 33.603 4.145 26.064-37.381 47.228-63.864 51.687-69.387.382-.329.748-.632 1.077-.877 2.846 3.46 46.522 51.358 88.235 113.843-23.907-9.864-46.383-14.218-46.383-14.218 10.71 4.381 22.998 10.739 33.649 16.632a547.07 547.07 0 0 1 8.277 4.552c4.891 2.812 9.719 5.722 14.509 8.682.072.046.162.099.232.141 0 .002 0 .004.002.004 7.729 4.781 15.339 9.734 22.788 14.913 12.145 8.437 23.745 17.61 35.007 27.114a380.882 380.882 0 0 1 60.417 64.094c17.544 23.5 31.773 49.741 39.647 78.035 3.997 14.102 5.863 28.863 5.171 43.534z" data-tags="super-account" glyph-name="super-account" horiz-adv-x="985" unicode=""/><glyph d="M0 960h1228.8V140.8h-152.16V-64.064L869.056 140.8H0V960zm213.344-192v-64h789.376v64H213.344zm0-192.032v-64H810.72v64H213.344zm0-192v-64h341.344v64H213.344z" data-tags="chat" glyph-name="chat" horiz-adv-x="1216" unicode=""/><glyph d="M108.947-.72h900.113L559.003 809.382 108.946-.72zm1009.061-64.105H0L559.004 941.382 1118.008-64.825zM535.262 394.594V127.49h53.421v267.104h-53.421zm0 106.842v-53.421h53.421v53.421h-53.421z" data-tags="alert" glyph-name="alert" horiz-adv-x="1117" unicode=""/><glyph d="M334.733 533.704 123.316 746.667 0 622.407l511.994-515.74L1024 622.431 901.312 745.977 512.657 354.48z" data-tags="ChevronDownBold" glyph-name="ChevronDownBold" unicode=""/><glyph d="M1172.794 960c30.431 0 41.465-3.168 52.59-9.118s19.856-14.681 25.806-25.806c5.95-11.125 9.118-22.16 9.118-52.59V23.514c0-30.431-3.168-41.465-9.118-52.59s-14.681-19.856-25.806-25.806c-11.125-5.95-22.16-9.118-52.59-9.118H87.514c-30.431 0-41.465 3.168-52.59 9.118S15.068-40.201 9.118-29.076C3.168-17.951 0-6.916 0 23.514v848.972c0 30.431 3.168 41.465 9.118 52.59s14.681 19.856 25.806 25.806c11.125 5.95 22.16 9.118 52.59 9.118h1085.28zM644.21 686.933c-26.917 0-52.402-6.23-74.966-17.284-54.008-27.017-92.362-81.545-91.358-144.53.705-44.645 30.963-123.997 49.468-135.77 7.884-5.016 18.062-3.691 59.123-3.458l42.776-.009a10820.8 10820.8 0 0 0 22.601-.077c1.071-.198 6.769-1.467 6.769-6.545h.017l.104-58.512c.017-4.865-4.021-8.816-9.022-8.816-4.992-.008-9.047 3.927-9.051 8.78 0 0 .444 23.482.444 32.234 0 2.028.154 5.511-5.934 8.141-20.02 8.666-85.025 3.434-88.673-6.125-1.394-3.677 5.868-17.894 17.052-36.124 37.288-57.211 73.882-101.816 79.8-108.951.365-.311.714-.594 1.029-.82 4.889 5.774 135.029 144.259 155.567 256.038 2.303 12.565-.332 22.234-7.138 27.284-10.238 7.584-25.622 11.713-62.25 11.713l-68.637-.024c-1.145.218-5.329 1.527-5.482 6.376l-.178 76.972c0 3.892 2.59 7.196 6.177 8.367l2.861.453c4.992.012 9.047-3.927 9.064-8.784l.023-9.426c.032-13.22.088-36.813.106-47.206 0-1.438.859-4.78 4.212-5.652 21.879-5.681 132.485-1.531 130.766 17.996l-.025.214c-9.367 80.77-79.763 143.548-165.245 143.548z" data-tags="Recommended" glyph-name="Recommended" horiz-adv-x="1297" unicode=""/><glyph d="M799.085 735.092c-22.509 17.863-42.696 15.54-65.989 4.678-41.158-33.372-62.128-64.42-77.668-107.116-31.08-85.391-50.513-165.351-61.406-248.418-7.786-74.529-32.65-142.842-83.131-201.83-3.108-8.539-14.755-13.971-17.863-22.509 3.108 8.539 11.647 5.432 11.647 5.432 67.56 52.773 109.501 114.869 123.503 206.477 21.003 137.41 50.544 271.713 170.908 363.289zm5.045 42.089c3.188 8.489 15.176 25.691 60.191 30.871 18.648 51.235 42.727 90.822 58.267 133.518 6.216 17.078 9.324 25.617 23.295 10.862 17.078-6.216 2.323-20.186-.785-28.725L901.586 804.16l-3.108-8.539s53.558-38.834 55.096-87.746l-13.971 14.755c-33.74 26.775-61.379 40.467-93.7 44.999 72.331-22.687 122.201-79.378 130.933-155.253 9.293-80.745-13.248-169.244-41.22-246.095-48.943-107.9-103.317-204.153-191.847-287.974C575.247-92.444 267.024-115.644 72.979 42.015c-5.432 11.647-10.862 23.295-27.94 29.51 31.834 7.754 43.48 13.185 60.559 6.97 77.637.754 155.273 1.507 233.695 30.986 101.715 40.341 170.06 121.839 201.925 235.956 24.864 68.312 29.542 134.303 45.866 205.724 7.001 45.803 25.649 97.038 49.728 136.626 35.392 73.506 92.457 100.538 167.32 89.398z" data-tags="Spice_Icon" glyph-name="Spice_Icon" unicode=""/><glyph d="M510.989 959.684c280.443.974 508.585-227.307 509.566-509.876S794.984-62.62 514.542-63.594C234.099-64.568 5.957 163.713 4.976 446.281s225.571 512.428 506.013 513.402zM763.01 522.336a262.49 262.49 0 0 1-21.302 52.082c3.61 6.888 32.601 61.958 36.227 68.846a13.715 13.715 0 0 1 1.399 8.463 13.684 13.684 0 0 1-3.899 7.645l-53.346 53.537a13.603 13.603 0 0 1-7.614 3.875 13.498 13.498 0 0 1-8.405-1.468c-6.763-3.669-60.916-33.053-67.695-36.722a257.816 257.816 0 0 1-52.555 22.202c-2.247 7.395-20.242 66.604-22.489 74.014a13.729 13.729 0 0 1-5.101 6.714 13.54 13.54 0 0 1-8.054 2.418l-75.169-.261c-2.888-.026-5.693-.979-8.004-2.714s-4.016-4.187-4.863-6.956c-2.196-7.394-19.779-66.55-21.975-73.945a257.939 257.939 0 0 1-52.844-22.568c-6.693 3.606-60.159 32.425-66.837 36.031a13.505 13.505 0 0 1-8.415 1.41 13.604 13.604 0 0 1-7.587-3.927c-5.393-5.327-48.471-47.911-53.864-53.238a13.773 13.773 0 0 1-3.845-7.672 13.714 13.714 0 0 1 1.458-8.453l36.254-67.028a262.043 262.043 0 0 1-22.048-53.128 418907.71 418907.71 0 0 1-73.52-22.64c-2.758-.873-5.18-2.592-6.886-4.933s-2.632-5.173-2.638-8.084l.263-75.658c.026-2.91.972-5.737 2.694-8.065s4.156-4.031 6.92-4.885c7.403-2.213 66.702-19.914 74.12-22.127a261.237 261.237 0 0 1 22.429-52.078c-3.625-7.048-32.612-63.365-36.238-70.413a13.715 13.715 0 0 1-1.399-8.463 13.785 13.785 0 0 1 3.899-7.645c5.334-5.322 48.011-47.976 53.345-53.314a13.498 13.498 0 0 1 16.019-2.407l68.582 37.172a258.577 258.577 0 0 1 51.217-20.863c2.248-7.539 20.246-67.818 22.51-75.358a13.546 13.546 0 0 1 12.919-9.58l75.169.261a13.552 13.552 0 0 1 12.852 9.67c2.211 7.571 19.79 68.166 21.985 75.736a257.653 257.653 0 0 1 50.627 21.217c6.931-3.685 62.352-33.232 69.284-36.918a13.505 13.505 0 0 1 8.415-1.41 13.5 13.5 0 0 1 7.587 3.928c5.298 5.375 47.676 48.324 52.973 53.683a13.78 13.78 0 0 1 3.845 7.672 13.714 13.714 0 0 1-1.458 8.453c-3.722 6.926-33.445 62.336-37.167 69.263a261.93 261.93 0 0 1 20.959 51.333l74.853 22.644a13.642 13.642 0 0 1 6.885 4.933 13.777 13.777 0 0 1 2.638 8.084l-.265 76.33a13.728 13.728 0 0 1-2.09 7.891c-.414.35-2.467 2.118-6.191 5.287-44.732 13.275-69.592 20.656-74.564 22.125zM446.156 345.453c-20.152 13.457-35.897 32.621-45.226 55.084-9.345 22.464-11.843 47.222-7.213 71.109 4.646 23.904 16.201 45.881 33.264 63.16 17.031 17.263 38.793 29.075 62.5 33.906s48.311 2.486 70.686-6.758c22.391-9.244 41.536-24.958 55.046-45.153s20.766-43.977 20.85-68.328c.113-32.649-12.663-64.016-35.513-87.183-22.865-23.167-53.923-36.242-86.358-36.355-24.199-.084-47.869 7.061-68.037 20.517z" data-tags="settings" glyph-name="settings" unicode=""/><glyph d="M57.745 869.616a52.67 52.67 0 0 0 44.548 35.212c16.538 1.815 32.963-4.289 43.847-16.001l374.948-374.948 374.586 374.576c9.455 10.007 22.452 15.915 35.904 16.444 21.988 1.236 42.423-11.338 51.231-31.523s4.128-43.718-11.47-58.741L596.355 438.612 971.538 63.426c20.206-20.9 19.742-54.195-1.038-74.524s-54.077-20.061-74.463.533L521.089 364.383 146.206-10.499c-20.451-20.661-53.748-20.928-74.528-.599s-21.245 53.624-.822 74.744l374.966 374.966L71.158 814.321a52.67 52.67 0 0 0-13.412 55.295z" data-tags="Search_close" glyph-name="Search_close" unicode=""/><glyph d="M243.037 34.176c-59.777 8.032-86.632 22.093-104.7 40.16S106.21 119.258 98.173 179.04C89.79 241.389 89.6 324.787 89.6 448s.19 206.609 8.573 268.963c8.037 59.777 22.096 86.632 40.164 104.7s44.924 32.127 104.7 40.164C305.391 870.21 388.787 870.4 512 870.4s206.611-.19 268.96-8.573c59.782-8.037 86.637-22.096 104.704-40.164s32.128-44.924 40.16-104.7c8.384-62.354 8.576-145.75 8.576-268.963s-.192-206.611-8.576-268.96c-8.032-59.782-22.093-86.637-40.16-104.704s-44.922-32.128-104.704-40.16C718.611 25.792 635.213 25.6 512 25.6s-206.609.192-268.963 8.576zM74.98 885.02C0 810.039 0 689.36 0 448 0 206.643 0 85.958 74.98 10.982 149.961-64 270.64-64 512-64c241.357 0 362.042 0 437.018 74.982C1024 85.958 1024 206.643 1024 448c0 241.359 0 362.038-74.982 437.02C874.042 960 753.357 960 512 960c-241.359 0-362.038 0-437.02-74.98zm139.032-646.85c-12.201 21.907 5.64 50.72 41.323 108.353l184.113 297.355c32.524 52.529 48.787 78.794 72.552 78.794s40.028-26.264 72.552-78.794l184.114-297.354c35.68-57.633 53.523-86.445 41.318-108.353-12.198-21.901-46.093-21.901-113.875-21.901H327.888c-67.783 0-101.674 0-113.875 21.901z" data-tags="nonveg" glyph-name="nonveg" unicode=""/><glyph d="M484.962 51.554c113.735 0 190.715.173 248.273 7.916 55.183 7.412 79.971 20.393 96.647 37.069 16.675 16.683 29.657 41.472 37.077 96.649 7.735 57.557 7.908 134.539 7.908 248.273s-.173 190.715-7.908 248.274c-7.42 55.179-20.401 79.968-37.077 96.646s-41.464 29.656-96.647 37.074c-57.557 7.738-134.538 7.914-248.273 7.914s-190.715-.176-248.274-7.914c-55.179-7.418-79.968-20.397-96.646-37.074s-29.656-41.467-37.074-96.646c-7.738-57.558-7.914-134.539-7.914-248.274s.176-190.715 7.914-248.273c7.418-55.177 20.397-79.966 37.074-96.649 16.678-16.675 41.467-29.657 96.646-37.069 57.558-7.743 134.539-7.916 248.274-7.916zM12.346 441.461c0 222.793 0 334.189 69.213 403.402s180.609 69.213 403.402 69.213c222.793 0 334.191 0 403.406-69.213 69.207-69.213 69.207-180.609 69.207-403.402s0-334.186-69.207-403.4c-69.215-69.215-180.612-69.215-403.406-69.215s-334.189 0-403.402 69.215c-69.213 69.215-69.213 180.607-69.213 403.4zm472.616-236.307c-130.51 0-236.308 105.799-236.308 236.308S354.452 677.77 484.962 677.77c130.509 0 236.308-105.798 236.308-236.308S615.471 205.154 484.962 205.154z" data-tags="veg" glyph-name="veg" unicode=""/><glyph d="M512 160c159.057 0 288 128.943 288 288S671.057 736 512 736c-159.058 0-288-128.942-288-288s128.942-288 288-288zM0-64h1024V960H0V-64zm96 928h832V32H96v832z" data-tags="Veg" glyph-name="Veg" unicode=""/><glyph d="M227.198 238.174c12.201-21.905 46.092-21.905 113.875-21.905h368.222c67.785 0 101.675 0 113.877 21.905 12.198 21.905-5.641 50.718-41.323 108.348L597.734 643.878c-32.521 52.529-48.785 78.794-72.55 78.794s-40.026-26.265-72.55-78.794L268.521 346.522c-35.683-57.63-53.524-86.443-41.323-108.348zM0-64h1024V960H0V-64zm96 928h832V32H96v832z" data-tags="NonVeg" glyph-name="NonVeg" unicode=""/></font>
</defs>
</svg>
